<svg width="278" height="216" viewBox="0 0 278 216" fill="none" xmlns="http://www.w3.org/2000/svg">
<g clip-path="url(#clip0_8_5020)">
<path d="M58.9913 50.8667L69.5053 68.3645C69.5053 68.3645 78.4693 72.96 88.946 82.187L86.4382 86.9599C86.4382 86.9599 69.1457 78.3272 64.7204 74.6797L56.6395 59.2349L58.9913 50.8667Z" fill="#A0616A"/>
<path d="M95.2331 90.6621C96.2364 88.872 95.0451 85.7507 92.5721 83.6904C90.0991 81.6302 87.281 81.4112 86.2776 83.2013C85.2742 84.9914 86.4656 88.1128 88.9385 90.173C91.4115 92.2332 94.2297 92.4522 95.2331 90.6621Z" fill="#A0616A"/>
<path d="M53.8522 35.9291L57.2929 34.7393C57.2929 34.7393 59.2958 34.7439 60.4258 37.1423C61.5557 39.5407 69.556 60.9251 69.1768 61.7535C68.7976 62.5819 68.2682 62.765 68.9477 63.2273C69.6272 63.6896 70.2494 63.4552 69.7862 64.1479C69.3231 64.8407 69.9631 66.3625 69.9631 66.3625L61.137 74.3015L53.8522 35.9291Z" fill="#6C63FF"/>
<path d="M40.5029 211.769L44.7007 211.769L46.6975 192.029L40.5021 192.03L40.5029 211.769Z" fill="#A0616A"/>
<path d="M54.8849 211.653C55.0156 211.922 55.0845 212.788 55.0845 213.1C55.0845 214.059 54.4467 214.837 53.6598 214.837H40.66C40.1232 214.837 39.688 214.306 39.688 213.652V212.992C39.688 212.992 39.0449 211.009 40.3689 208.565C40.3689 208.565 42.0145 210.479 44.4734 207.481L45.1985 205.879L50.4473 210.559L53.3566 210.996C53.9931 211.091 54.5574 210.981 54.8849 211.653Z" fill="#2F2E41"/>
<path d="M55.6958 206.782L59.8356 207.63L64.4875 188.566L58.3776 187.315L55.6958 206.782Z" fill="#A0616A"/>
<path d="M69.8948 209.573C69.9872 209.864 69.9375 210.732 69.8951 211.04C69.7648 211.986 69.03 212.624 68.2541 212.465L55.4339 209.839C54.9045 209.73 54.5475 209.119 54.6364 208.474L54.7261 207.823C54.7261 207.823 54.3614 205.738 55.9993 203.594C55.9993 203.594 57.362 205.814 60.1943 203.355L61.127 201.922L65.6673 207.597L68.4771 208.616C69.0918 208.838 69.6633 208.843 69.8948 209.573Z" fill="#2F2E41"/>
<path d="M64.3009 105.494C64.3009 105.494 69.9407 113.544 69.9407 120.923C69.9407 128.302 70.0783 151.482 70.0783 151.482C70.0783 151.482 66.7769 187.669 65.9516 190.688C65.1262 193.706 64.7135 198.737 64.7135 198.737L56.7352 196.39C56.7352 196.39 55.6347 162.346 58.9361 154.296L50.9577 126.793L48.2066 204.607H38.9447C38.9447 204.607 34.1757 163.687 36.6517 152.954C36.6517 152.954 31.1494 112.035 32.525 109.687C33.9006 107.339 64.3009 105.494 64.3009 105.494Z" fill="#2F2E41"/>
<path d="M43.8047 25.3323L51.2328 26.0031L53.7088 31.0342C53.7088 31.0342 59.4863 34.0528 60.3116 38.4131C61.137 42.7734 61.4121 93.7552 61.4121 93.7552L65.5388 101.134L65.2637 107.507L32.2498 109.519V103.392L29.2235 96.103C29.2235 96.103 32.5249 37.7423 33.3502 37.4069C34.1756 37.0715 40.5033 31.705 40.5033 31.705L43.8047 25.3323Z" fill="#6C63FF"/>
<path d="M47.1666 24.0842C52.3326 24.0842 56.5205 18.9786 56.5205 12.6804C56.5205 6.38227 52.3326 1.27661 47.1666 1.27661C42.0005 1.27661 37.8126 6.38227 37.8126 12.6804C37.8126 18.9786 42.0005 24.0842 47.1666 24.0842Z" fill="#A0616A"/>
<path d="M54.6382 3.50792C54.1623 1.86218 52.8418 0.863753 51.4108 0.902643C51.3501 0.904272 51.2896 0.903588 51.2295 0.900582C50.5089 0.86466 49.8171 0.564576 49.1105 0.388534C47.7935 0.0604059 46.4048 0.170263 45.1336 0.703115C44.7385 0.868753 44.3429 1.07704 43.925 1.07709C43.5072 1.07717 43.0521 0.797843 42.9502 0.303854C42.926 0.751103 42.9019 1.19833 42.8777 1.64556C42.7417 1.28358 42.6058 0.92158 42.4698 0.559586L42.1975 2.00318L41.3251 0.796704C41.4032 1.32848 41.1489 1.86444 40.8045 2.20443C40.4602 2.54443 40.035 2.7325 39.6273 2.94433C37.868 3.8586 36.2161 5.47731 35.7091 7.72556C35.3888 9.14599 35.5564 10.6535 35.7261 12.112C35.8761 13.4014 36.0392 14.7353 36.6141 15.8329C36.9826 16.5365 37.5138 17.1286 37.7382 17.9173C37.9473 18.6525 37.8681 19.4942 38.1657 20.1827C38.4645 20.8742 39.0814 21.2654 39.6852 21.5281C40.289 21.7909 40.9308 21.9768 41.4508 22.434C41.9707 22.8913 42.5741 24.2085 43.707 24.1376L44.0726 23.3002C44.4487 22.9266 43.0568 23.2228 43.0423 22.6316C43.0277 22.0404 44.7171 21.6751 44.4777 21.1606C44.1105 20.3718 43.6137 19.6852 43.2 18.9313C42.7161 18.0496 42.3355 17.0195 42.5025 15.9434C42.5674 15.5248 42.7281 15.1294 42.9729 14.8253C43.6786 13.9488 44.4654 14.334 45.23 14.4594C45.757 14.5459 46.3864 14.4461 46.6601 13.8902C46.9802 13.2398 46.6234 12.4124 46.6671 11.6558C46.7133 10.8541 47.2115 10.1967 47.7537 9.73964C48.296 9.28258 48.9116 8.94958 49.3994 8.409C49.8871 7.86837 50.2346 7.02378 50.022 6.26307C52.3341 5.08951 52.6881 4.97851 55.1228 5.69419C55.0068 4.95189 54.8443 4.22052 54.6382 3.50792Z" fill="#2F2E41"/>
<path d="M15.1489 149.361V114.747C15.1489 113.798 15.4808 112.889 16.0596 112.254C16.6384 111.619 17.4143 111.312 18.1889 111.411C25.3644 110.234 32.1224 110.794 38.2471 113.99C38.9409 113.99 39.5053 114.678 39.5053 115.523V150.259C39.5053 151.105 38.9409 151.793 38.2471 151.793C31.5052 149.865 24.3944 150.367 17.1431 151.793C16.0435 151.793 15.1489 150.702 15.1489 149.361Z" fill="#E6E6E6"/>
<path d="M15.1489 152.443V117.463C15.1489 115.613 16.3832 114.108 17.9004 114.108C24.7619 111.919 31.5443 111.916 38.2471 114.108C38.9409 114.108 39.5053 114.796 39.5053 115.642V150.022C39.5053 150.866 38.9425 151.554 38.2502 151.556C31.6411 150.154 24.5613 151.519 17.1431 154.874C16.0435 154.874 15.1489 153.783 15.1489 152.443Z" fill="#F2F2F2"/>
<path d="M30.9931 128.564H24.5771C22.2728 128.564 20.3982 126.279 20.3982 123.469C20.3982 120.66 22.2728 118.375 24.5771 118.375H30.9931C33.2976 118.375 35.1722 120.66 35.1722 123.469C35.1722 126.279 33.2976 128.564 30.9931 128.564Z" fill="#E6E6E6"/>
<path d="M36.8735 59.8584L36.6283 77.9181C36.6283 77.9181 35.8445 91.9927 33.8979 107.832L29.2581 108.193C29.2581 108.193 29.8289 83.4619 29.621 76.9544L29.9491 62.5008L36.8735 59.8584Z" fill="#A0616A"/>
<path d="M32.0163 119.026C33.7937 118.953 35.1521 115.934 35.0503 112.285C34.9486 108.635 33.4252 105.737 31.6478 105.81C29.8704 105.884 28.5121 108.902 28.6138 112.552C28.7156 116.201 30.2389 119.1 32.0163 119.026Z" fill="#A0616A"/>
<path d="M36.8014 36.8662L33.2273 37.0249C33.2273 37.0249 31.3228 37.7807 30.853 40.4866C30.3833 43.1925 27.0903 71.1959 27.6602 71.8419C28.2301 72.4878 28.78 72.4634 28.2502 73.1582C27.7203 73.853 27.0692 73.8634 27.6847 74.3487C28.3002 74.8341 28.0754 76.5222 28.0754 76.5222L37.9606 75.6684L36.8014 36.8662Z" fill="#6C63FF"/>
<path d="M272.615 198.217H177.519C176.967 198.217 176.42 198.114 175.895 197.911L175.839 197.884C146.062 179.842 120.532 169.996 97.7902 167.781L97.7037 167.76C95.454 166.892 93.9426 164.376 93.9426 161.5V6.57119C93.9426 4.45568 94.7456 2.5252 96.1453 1.275C97.5453 0.0248026 99.2969 -0.326004 100.952 0.311381L176.129 29.3013C176.58 29.475 177.047 29.5628 177.519 29.5628H272.615C275.584 29.5628 278 32.5082 278 36.1282V191.652C278 195.272 275.584 198.217 272.615 198.217ZM176.158 197.017C176.599 197.183 177.057 197.267 177.519 197.267H272.615C275.155 197.267 277.221 194.748 277.221 191.652V36.1282C277.221 33.0317 275.155 30.5125 272.615 30.5125H177.519C176.967 30.5125 176.421 30.4098 175.895 30.207L100.717 1.21704C99.3014 0.670769 97.8032 0.971726 96.6058 2.04107C95.4084 3.11065 94.7216 4.76174 94.7216 6.57119V161.5C94.7216 163.943 95.9958 166.081 97.8975 166.838C120.721 169.072 146.322 178.943 176.158 197.017Z" fill="#3F3D56"/>
<path d="M180.058 191.182C205.987 179.996 234.913 181.28 265.643 190.066C269.5 191.169 273.199 187.628 273.199 182.797V41.2371C273.199 37.7995 271.277 34.7938 268.538 33.9772C236.12 24.3127 205.841 22.5346 179.156 34.0188C177.202 34.8601 175.032 34.4043 173.382 32.8734C150.896 12.0054 127.883 1.54241 104.183 4.64914C101.082 5.05556 98.7437 8.27688 98.7437 12.0786V155.183C98.7437 159.014 101.122 162.218 104.248 162.614C129.757 165.849 153.198 175.652 174.998 190.664C176.541 191.727 178.387 191.903 180.058 191.182Z" fill="#F2F2F2"/>
<path d="M179.225 183.243C177.459 183.243 175.72 182.652 174.187 181.491C155.879 167.629 135.933 159.531 114.903 157.422C109.973 156.928 106.111 151.801 106.111 145.75V23.5156C106.111 17.2419 110.101 12.1013 115.196 11.8126C130.508 10.9422 149.099 19.2668 173.701 38.001C175.782 39.5853 178.312 40.0557 180.644 39.2934C204.025 31.6419 229.369 31.4184 258.127 38.6101C262.592 39.7267 265.832 44.5578 265.832 50.0977V169.41C265.832 173.01 264.504 176.354 262.188 178.584C259.855 180.831 256.853 181.637 253.951 180.794C226.746 172.901 203.386 173.471 182.533 182.539C181.45 183.011 180.332 183.243 179.225 183.243ZM117.382 12.7011C116.657 12.7011 115.942 12.7211 115.232 12.7614C110.554 13.0264 106.89 17.7502 106.89 23.5156V145.75C106.89 151.31 110.438 156.021 114.967 156.475C136.121 158.597 156.184 166.742 174.598 180.685C176.89 182.42 179.686 182.769 182.272 181.645C203.27 172.513 226.775 171.932 254.131 179.871C256.8 180.645 259.56 179.905 261.705 177.839C263.833 175.79 265.053 172.718 265.053 169.41V50.0977C265.053 45.0067 262.074 40.5668 257.97 39.5403C229.334 32.3786 204.107 32.5979 180.846 40.2106C178.306 41.0411 175.551 40.5299 173.288 38.8065C149.973 21.0526 132.12 12.7011 117.382 12.7011Z" fill="white"/>
<path d="M177.456 40.0027L176.677 40.0115L177.761 183.026L178.54 183.017L177.456 40.0027Z" fill="white"/>
<path d="M113.705 30.5646L113.46 31.4661L168.002 53.4681L168.247 52.5667L113.705 30.5646Z" fill="#3F3D56"/>
<path d="M113.705 48.1664L113.46 49.0679L168.002 71.0699L168.247 70.1685L113.705 48.1664Z" fill="#3F3D56"/>
<path d="M113.705 65.768L113.46 66.6694L168.002 88.6715L168.247 87.7701L113.705 65.768Z" fill="#3F3D56"/>
<path d="M113.705 83.3696L113.46 84.271L168.002 106.273L168.247 105.372L113.705 83.3696Z" fill="#3F3D56"/>
<path d="M255.954 53.5208H190.583V54.4705H255.954V53.5208Z" fill="#3F3D56"/>
<path d="M255.954 70.1445H190.583V71.0942H255.954V70.1445Z" fill="#3F3D56"/>
<path d="M255.954 86.7681H190.583V87.7178H255.954V86.7681Z" fill="#3F3D56"/>
<path d="M255.954 103.392H190.583V104.342H255.954V103.392Z" fill="#3F3D56"/>
<path d="M255.954 120.016H190.583V120.965H255.954V120.016Z" fill="#3F3D56"/>
<path d="M255.954 136.64H190.583V137.589H255.954V136.64Z" fill="#3F3D56"/>
<path d="M21.1336 207.769C20.329 207.831 19.8843 206.612 20.493 205.902L20.5536 205.608C20.5456 205.585 20.5376 205.561 20.5295 205.538C19.7158 203.172 16.9579 203.188 16.1511 205.557C15.4349 207.66 14.5232 209.767 14.2987 211.99C14.1981 212.971 14.2433 213.971 14.422 214.934C12.744 210.465 11.861 205.586 11.861 200.679C11.861 199.446 11.9163 198.213 12.0295 196.983C12.1226 195.977 12.2509 194.977 12.417 193.986C13.315 188.631 15.2597 183.531 18.0647 179.271C19.4131 178.372 20.5376 176.968 21.2169 175.284C21.4609 174.677 21.6521 174.023 21.7427 173.358C21.5892 173.382 21.164 170.533 21.2798 170.358C21.0659 169.963 20.6832 169.766 20.4496 169.38C19.288 167.46 17.6876 167.795 16.8521 170.404C15.0674 171.502 15.0501 173.324 16.1452 175.075C16.8419 176.19 16.9377 177.698 17.549 178.891C17.4861 178.989 17.4207 179.084 17.3578 179.182C16.2045 180.985 15.207 182.924 14.366 184.96C14.6037 182.697 14.2528 179.97 13.6547 178.213C12.9738 176.21 11.6975 174.524 10.5736 172.792C9.22357 170.713 6.45528 171.62 6.21744 174.256C6.21514 174.282 6.2129 174.307 6.2107 174.333C6.37764 174.448 6.54118 174.57 6.70093 174.699C7.61216 175.433 7.29724 177.155 6.21754 177.359L6.19309 177.363C6.25348 178.096 6.35662 178.823 6.50755 179.538C5.06571 186.336 8.17853 188.812 12.6232 188.923C12.7213 188.984 12.8169 189.045 12.9151 189.104C12.4647 190.65 12.105 192.235 11.8383 193.842C11.5993 195.262 11.4333 196.698 11.3402 198.139C11.2245 199.958 11.2346 201.786 11.3604 203.601L11.3528 203.537C11.0333 201.537 10.1427 199.67 8.84966 198.375C6.92337 196.446 4.20187 195.736 2.12374 194.185C1.12338 193.439 -0.158496 194.403 0.0160918 195.817L0.0245906 195.885C0.334018 196.038 0.635894 196.216 0.92772 196.415C1.09466 196.53 1.2582 196.652 1.41796 196.781C2.32918 197.516 2.01426 199.238 0.934563 199.441L0.910095 199.446C0.89249 199.449 0.877389 199.452 0.859807 199.455C1.39062 200.991 2.13022 202.418 3.056 203.648C3.95754 209.582 7.82968 210.145 11.9717 208.417H11.9742C12.427 210.821 13.0886 213.171 13.939 215.41H20.9578C20.9829 215.314 21.0056 215.216 21.0282 215.121C20.3792 215.17 19.7251 215.124 19.0861 214.98C19.6068 214.201 20.1276 213.416 20.6483 212.637C20.6609 212.622 20.671 212.606 20.681 212.591C20.9452 212.192 21.2118 211.797 21.476 211.398L21.4761 211.397C21.4927 210.173 21.3721 208.953 21.1336 207.769Z" fill="#F2F2F2"/>
<path d="M99.6371 215.435C99.6371 215.748 99.4307 216 99.1736 216H0.518066C0.26101 216 0.0545654 215.748 0.0545654 215.435C0.0545654 215.122 0.26101 214.87 0.518066 214.87H99.1736C99.4307 214.87 99.6371 215.122 99.6371 215.435Z" fill="#CCCCCC"/>
<path d="M258.7 185.396C263.647 185.396 267.658 180.506 267.658 174.474C267.658 168.443 263.647 163.553 258.7 163.553C253.752 163.553 249.741 168.443 249.741 174.474C249.741 180.506 253.752 185.396 258.7 185.396Z" fill="#6C63FF"/>
<path d="M262.895 174.063L257.336 170.15C257.077 169.967 256.752 170.196 256.752 170.561V173.999H255.085C254.87 173.999 254.695 174.212 254.695 174.474C254.695 174.737 254.87 174.949 255.085 174.949H256.752V178.387C256.752 178.753 257.077 178.981 257.336 178.799L262.895 174.886C263.154 174.703 263.154 174.246 262.895 174.063Z" fill="white"/>
<path d="M131.131 143.688C131.48 138.821 133.138 134.172 135.79 130.513C138.374 126.948 141.906 124.503 145.715 123.507C147.841 122.951 150.044 122.843 152.197 123.217C152.713 123.307 152.699 124.305 152.178 124.214C148.513 123.577 144.726 124.355 141.433 126.418C138.057 128.533 135.356 131.972 133.687 136.12C132.733 138.492 132.137 141.08 131.949 143.712C131.903 144.349 131.085 144.329 131.131 143.688Z" fill="white"/>
<path d="M151.29 119.215L157.586 123.002C157.815 123.14 157.852 123.594 157.658 123.79L151.698 129.796C151.295 130.203 150.727 129.484 151.134 129.075L157.093 123.069L157.165 123.857L150.87 120.071C150.397 119.786 150.822 118.933 151.29 119.215Z" fill="white"/>
</g>
<defs>
<clipPath id="clip0_8_5020">
<rect width="278" height="216" fill="white"/>
</clipPath>
</defs>
</svg>
