<svg width="32" height="32" viewBox="0 0 32 32" fill="none" xmlns="http://www.w3.org/2000/svg">
<g id="jest">
<g id="SVGRepo_iconCarrier">
<path id="Vector" d="M27.089 15.786C27.089 15.0948 26.8144 14.432 26.3257 13.9433C25.837 13.4546 25.1741 13.18 24.483 13.18C24.39 13.18 24.299 13.185 24.209 13.194L27.789 2.637H12.577L16.151 13.185C16.099 13.185 16.046 13.18 15.993 13.18C15.3715 13.1806 14.7706 13.4032 14.2987 13.8077C13.8268 14.2122 13.515 14.772 13.4194 15.3862C13.3239 16.0003 13.4509 16.6284 13.7775 17.1572C14.1042 17.6859 14.609 18.0806 15.201 18.27C14.6467 19.2245 13.9565 20.0933 13.152 20.849C12.105 21.8497 10.8614 22.6218 9.49999 23.116C8.73716 22.7542 8.14058 22.1157 7.83136 21.3301C7.52213 20.5445 7.52343 19.6707 7.83499 18.886C7.91199 18.706 7.98999 18.524 8.06499 18.342C8.64632 18.2052 9.1631 17.873 9.52894 17.401C9.89479 16.9289 10.0876 16.3456 10.075 15.7486C10.0625 15.1515 9.84537 14.5768 9.46001 14.1205C9.07466 13.6643 8.54439 13.3541 7.95782 13.2418C7.37125 13.1296 6.76392 13.222 6.23733 13.5037C5.71074 13.7855 5.29678 14.2394 5.06465 14.7896C4.83252 15.3399 4.79627 15.9531 4.96196 16.5269C5.12766 17.1007 5.48525 17.6002 5.97499 17.942C5.14253 19.4504 4.50765 21.0596 4.08599 22.73C3.73199 24.865 4.08599 27.13 5.93099 28.411C10.231 31.392 14.9 26.563 19.822 25.35C21.606 24.91 23.564 24.981 25.135 24.07C25.7029 23.7471 26.1926 23.303 26.5692 22.7692C26.9458 22.2355 27.2001 21.6253 27.314 20.982C27.4184 20.3694 27.3986 19.742 27.2559 19.1372C27.1131 18.5323 26.8503 17.9623 26.483 17.461C26.875 16.9925 27.0896 16.4009 27.089 15.79V15.786ZM18.6 15.8V15.791C18.6002 15.3426 18.4848 14.9018 18.2647 14.5111C18.0447 14.1205 17.7276 13.7932 17.344 13.561L20.188 7.8L23.038 13.614C22.6804 13.8516 22.3873 14.174 22.1847 14.5525C21.9821 14.931 21.8764 15.3537 21.877 15.783C21.877 15.802 21.877 15.821 21.877 15.84L18.6 15.8Z" fill="#99425B"/>
<path id="Vector_2" d="M27.726 15.786C27.7248 15.0304 27.4602 14.2989 26.9778 13.7174C26.4954 13.1359 25.8253 12.7407 25.083 12.6L28.677 2H11.689L15.289 12.621C14.6602 12.761 14.0874 13.0852 13.6437 13.5522C13.1999 14.0191 12.9053 14.6077 12.7975 15.2428C12.6896 15.8779 12.7735 16.5307 13.0382 17.1179C13.303 17.7052 13.7367 18.2003 14.284 18.54C13.8319 19.2119 13.3059 19.8311 12.716 20.386C11.8028 21.2594 10.7299 21.9486 9.556 22.416C9.00495 22.096 8.58726 21.5886 8.3791 20.9863C8.17094 20.384 8.18616 19.727 8.422 19.135L8.462 19.042L8.536 18.867C9.20219 18.6359 9.77493 18.194 10.1675 17.6083C10.5601 17.0225 10.7511 16.3248 10.7117 15.6208C10.6723 14.9168 10.4045 14.2447 9.94898 13.7065C9.49345 13.1683 8.87495 12.7931 8.18712 12.6378C7.4993 12.4825 6.77961 12.5556 6.13703 12.846C5.49444 13.1363 4.96396 13.6281 4.6259 14.2469C4.28784 14.8657 4.16061 15.5778 4.26348 16.2754C4.36635 16.973 4.69371 17.6181 5.196 18.113C5.088 18.344 4.974 18.578 4.857 18.819C4.20892 20.0112 3.73733 21.2913 3.457 22.619C2.992 25.419 3.742 27.662 5.568 28.927C6.54963 29.629 7.72721 30.0044 8.934 30C11.066 30 13.223 28.929 15.334 27.881C16.8089 27.079 18.365 26.4363 19.976 25.964C20.5703 25.8277 21.1711 25.7212 21.776 25.645C23.0571 25.5427 24.3064 25.1936 25.455 24.617C26.103 24.247 26.6618 23.739 27.0916 23.1289C27.5213 22.5189 27.8117 21.8218 27.942 21.087C28.1548 19.8389 27.9097 18.5559 27.252 17.474C27.5632 16.966 27.7266 16.3817 27.726 15.786ZM26.453 15.786C26.453 16.1756 26.3375 16.5565 26.121 16.8805C25.9045 17.2044 25.5969 17.4569 25.2369 17.606C24.8769 17.7551 24.4808 17.7942 24.0987 17.7181C23.7165 17.6421 23.3655 17.4545 23.09 17.179C22.8145 16.9035 22.6269 16.5525 22.5509 16.1703C22.4748 15.7882 22.5139 15.3921 22.663 15.0321C22.8121 14.6721 23.0646 14.3645 23.3885 14.148C23.7125 13.9315 24.0934 13.816 24.483 13.816C25.0052 13.8168 25.5059 14.0246 25.8751 14.3939C26.2444 14.7632 26.4522 15.2638 26.453 15.786ZM26.9 3.273L23.726 12.633C23.5901 12.6661 23.4565 12.7079 23.326 12.758L20.191 6.358L17.046 12.72C16.909 12.6728 16.769 12.6347 16.627 12.606L13.464 3.273H26.9ZM15.993 13.816C16.3826 13.816 16.7635 13.9315 17.0875 14.148C17.4114 14.3645 17.6639 14.6721 17.813 15.0321C17.9622 15.3921 18.0012 15.7882 17.9251 16.1703C17.8491 16.5525 17.6615 16.9035 17.386 17.179C17.1105 17.4545 16.7595 17.6421 16.3773 17.7181C15.9952 17.7942 15.5991 17.7551 15.2391 17.606C14.8791 17.4569 14.5715 17.2044 14.355 16.8805C14.1385 16.5565 14.023 16.1756 14.023 15.786C14.0235 15.2637 14.2313 14.7629 14.6006 14.3936C14.9699 14.0243 15.4707 13.8165 15.993 13.816ZM7.47 13.835C7.85963 13.835 8.24051 13.9505 8.56448 14.167C8.88844 14.3835 9.14094 14.6911 9.29005 15.0511C9.43915 15.4111 9.47816 15.8072 9.40215 16.1893C9.32614 16.5715 9.13851 16.9225 8.863 17.198C8.58749 17.4735 8.23647 17.6611 7.85433 17.7371C7.47219 17.8132 7.07609 17.7741 6.71612 17.625C6.35615 17.4759 6.04847 17.2234 5.83201 16.8995C5.61554 16.5755 5.5 16.1946 5.5 15.805C5.50053 15.2829 5.70812 14.7822 6.07723 14.4129C6.44635 14.0436 6.94786 13.8358 7.47 13.835ZM26.687 20.869C26.5883 21.4203 26.3695 21.9431 26.0462 22.4004C25.7228 22.8576 25.3028 23.2382 24.816 23.515C23.8063 24.0062 22.7127 24.3014 21.593 24.385C20.961 24.476 20.308 24.57 19.669 24.728C17.968 25.2207 16.3251 25.8956 14.769 26.741C11.605 28.312 8.869 29.669 6.297 27.884C4.41 26.576 4.497 24.156 4.717 22.83C4.97552 21.6227 5.40768 20.4593 6 19.376C6.092 19.186 6.182 19.001 6.27 18.817C6.53875 18.924 6.82057 18.9946 7.108 19.027C6.85308 19.926 6.924 20.8861 7.30825 21.7378C7.6925 22.5896 8.36535 23.2782 9.208 23.682L9.453 23.808L9.712 23.715C11.1571 23.1939 12.4774 22.3764 13.588 21.315C14.3213 20.6244 14.9656 19.8451 15.506 18.995C16.1971 19.1001 16.9037 18.979 17.5203 18.6496C18.137 18.3202 18.6306 17.8003 18.9275 17.1674C19.2244 16.5346 19.3087 15.8226 19.1679 15.1379C19.0271 14.4532 18.6686 13.8323 18.146 13.368L20.184 9.247L22.243 13.447C21.6572 14.0116 21.3052 14.7759 21.257 15.5881C21.2089 16.4003 21.468 17.2009 21.983 17.8308C22.498 18.4606 23.2311 18.8737 24.0367 18.9879C24.8422 19.102 25.6613 18.909 26.331 18.447C26.7025 19.1961 26.8268 20.0438 26.686 20.868L26.687 20.869Z" fill="white"/>
</g>
</g>
</svg>
