<svg width="32" height="32" viewBox="0 0 32 32" fill="none" xmlns="http://www.w3.org/2000/svg">
<g id="playwright" clip-path="url(#clip0_1_14)">
<g id="SVGRepo_iconCarrier">
<path id="Vector" d="M16 32C24.8366 32 32 24.8366 32 16C32 7.16344 24.8366 0 16 0C7.16344 0 0 7.16344 0 16C0 24.8366 7.16344 32 16 32Z" fill="#FD8469"/>
<path id="Vector_2" d="M25.5496 10.2803C23.8614 11.2378 21.7701 12.1449 19.452 12.9008C17.1339 13.6567 14.9165 14.1102 12.9764 14.337C13.1024 15.3701 13.3291 16.4535 13.6819 17.537C15.5213 23.2063 19.9559 26.8598 23.5843 25.7008C27.2126 24.5165 28.6992 18.9732 26.8598 13.3039C26.5071 12.2205 26.0535 11.2126 25.5496 10.2803ZM14.8661 16.8567C16.5039 15.9496 18.5701 16.5291 19.5024 18.1669C17.8394 19.0992 15.7732 18.4945 14.8661 16.8567ZM22.7276 23.0551C20.6362 23.7354 18.3937 22.7024 17.5118 20.7622C18.7465 21.4677 20.4346 21.6441 22.1228 21.115C23.7858 20.5858 25.0457 19.452 25.6504 18.1417C26.0535 20.2583 24.8189 22.3748 22.7276 23.0551ZM22.5008 17.2094C22.274 15.3449 23.6094 13.6567 25.474 13.4299C25.7008 15.2945 24.3654 16.9827 22.5008 17.2094Z" fill="#324A5E"/>
<path id="Vector_3" d="M20.3087 9.77638C18.1669 9.65039 15.6724 9.27244 13.0772 8.59213C10.4819 7.91181 8.13858 7.02992 6.19842 6.07244C5.69449 7.10551 5.26614 8.23937 4.93858 9.47402C3.27559 15.8488 5.24094 21.8961 9.32283 22.9543C13.4047 24.0126 18.0661 19.7291 19.7291 13.3543C20.0567 12.1197 20.2583 10.9354 20.3087 9.77638ZM6.45039 9.54961C8.51653 9.67559 10.1039 11.4646 9.97795 13.5307C7.91181 13.4047 6.32441 11.6157 6.45039 9.54961ZM10.1039 19.9811C7.76063 19.3764 6.27401 17.1087 6.60157 14.7402C7.33228 16.1512 8.8189 17.3102 10.6835 17.789C12.548 18.2677 14.4126 17.9654 15.748 17.1087C14.8661 19.3512 12.4472 20.611 10.1039 19.9811ZM13.3795 14.4126C14.2866 12.548 16.5291 11.7669 18.3937 12.674C17.4866 14.5386 15.2441 15.3197 13.3795 14.4126Z" fill="white"/>
</g>
</g>
<defs>
<clipPath id="clip0_1_14">
<rect width="32" height="32" fill="white"/>
</clipPath>
</defs>
</svg>
