<svg width="1440" height="1437" viewBox="0 0 1440 1437" fill="none" xmlns="http://www.w3.org/2000/svg">
<g id="bg">
<g id="Group 32955">
<g id="&#240;&#159;&#142;&#168; Dots 1" clip-path="url(#clip0_8_4325)">
<path id="Dot" d="M1366.7 824.661C1370.4 824.661 1373.39 821.668 1373.39 817.975C1373.39 814.282 1370.4 811.288 1366.7 811.288C1363.01 811.288 1360.02 814.282 1360.02 817.975C1360.02 821.668 1363.01 824.661 1366.7 824.661Z" fill="#FDCB6E"/>
<path id="Dot_2" d="M1388.99 802.373C1392.69 802.373 1395.68 799.379 1395.68 795.686C1395.68 791.994 1392.69 789 1388.99 789C1385.3 789 1382.31 791.994 1382.31 795.686C1382.31 799.379 1385.3 802.373 1388.99 802.373Z" fill="#FDCB6E"/>
<path id="Dot_3" d="M1411.28 824.661C1414.97 824.661 1417.97 821.668 1417.97 817.975C1417.97 814.282 1414.97 811.288 1411.28 811.288C1407.59 811.288 1404.59 814.282 1404.59 817.975C1404.59 821.668 1407.59 824.661 1411.28 824.661Z" fill="#FDCB6E"/>
<path id="Dot_4" d="M1322.13 869.238C1325.82 869.238 1328.81 866.244 1328.81 862.551C1328.81 858.858 1325.82 855.865 1322.13 855.865C1318.43 855.865 1315.44 858.858 1315.44 862.551C1315.44 866.244 1318.43 869.238 1322.13 869.238Z" fill="#FDCB6E"/>
<path id="Dot_5" d="M1344.42 846.949C1348.11 846.949 1351.1 843.956 1351.1 840.263C1351.1 836.57 1348.11 833.576 1344.42 833.576C1340.72 833.576 1337.73 836.57 1337.73 840.263C1337.73 843.956 1340.72 846.949 1344.42 846.949Z" fill="#FDCB6E"/>
<path id="Dot_6" d="M1366.7 869.238C1370.4 869.238 1373.39 866.244 1373.39 862.551C1373.39 858.858 1370.4 855.865 1366.7 855.865C1363.01 855.865 1360.02 858.858 1360.02 862.551C1360.02 866.244 1363.01 869.238 1366.7 869.238Z" fill="#FDCB6E"/>
<path id="Dot_7" d="M1388.99 846.949C1392.69 846.949 1395.68 843.956 1395.68 840.263C1395.68 836.57 1392.69 833.576 1388.99 833.576C1385.3 833.576 1382.31 836.57 1382.31 840.263C1382.31 843.956 1385.3 846.949 1388.99 846.949Z" fill="#FDCB6E"/>
<path id="Dot_8" d="M1411.28 869.238C1414.97 869.238 1417.97 866.244 1417.97 862.551C1417.97 858.858 1414.97 855.865 1411.28 855.865C1407.59 855.865 1404.59 858.858 1404.59 862.551C1404.59 866.244 1407.59 869.238 1411.28 869.238Z" fill="#FDCB6E"/>
<path id="Dot_9" d="M1277.55 913.814C1281.24 913.814 1284.24 910.82 1284.24 907.128C1284.24 903.435 1281.24 900.441 1277.55 900.441C1273.86 900.441 1270.86 903.435 1270.86 907.128C1270.86 910.82 1273.86 913.814 1277.55 913.814Z" fill="#FDCB6E"/>
<path id="Dot_10" d="M1299.84 891.526C1303.53 891.526 1306.53 888.532 1306.53 884.839C1306.53 881.146 1303.53 878.153 1299.84 878.153C1296.15 878.153 1293.15 881.146 1293.15 884.839C1293.15 888.532 1296.15 891.526 1299.84 891.526Z" fill="#FDCB6E"/>
<path id="Dot_11" d="M1322.13 913.814C1325.82 913.814 1328.81 910.82 1328.81 907.128C1328.81 903.435 1325.82 900.441 1322.13 900.441C1318.43 900.441 1315.44 903.435 1315.44 907.128C1315.44 910.82 1318.43 913.814 1322.13 913.814Z" fill="#FDCB6E"/>
<path id="Dot_12" d="M1344.42 891.526C1348.11 891.526 1351.1 888.532 1351.1 884.839C1351.1 881.146 1348.11 878.153 1344.42 878.153C1340.72 878.153 1337.73 881.146 1337.73 884.839C1337.73 888.532 1340.72 891.526 1344.42 891.526Z" fill="#FDCB6E"/>
<path id="Dot_13" d="M1366.7 913.814C1370.4 913.814 1373.39 910.82 1373.39 907.128C1373.39 903.435 1370.4 900.441 1366.7 900.441C1363.01 900.441 1360.02 903.435 1360.02 907.128C1360.02 910.82 1363.01 913.814 1366.7 913.814Z" fill="#FDCB6E"/>
<path id="Dot_14" d="M1388.99 891.526C1392.69 891.526 1395.68 888.532 1395.68 884.839C1395.68 881.146 1392.69 878.153 1388.99 878.153C1385.3 878.153 1382.31 881.146 1382.31 884.839C1382.31 888.532 1385.3 891.526 1388.99 891.526Z" fill="#FDCB6E"/>
<path id="Dot_15" d="M1411.28 913.814C1414.97 913.814 1417.97 910.82 1417.97 907.128C1417.97 903.435 1414.97 900.441 1411.28 900.441C1407.59 900.441 1404.59 903.435 1404.59 907.128C1404.59 910.82 1407.59 913.814 1411.28 913.814Z" fill="#FDCB6E"/>
<path id="Dot_16" d="M1299.84 936.102C1303.53 936.102 1306.53 933.109 1306.53 929.416C1306.53 925.723 1303.53 922.729 1299.84 922.729C1296.15 922.729 1293.15 925.723 1293.15 929.416C1293.15 933.109 1296.15 936.102 1299.84 936.102Z" fill="#FDCB6E"/>
<path id="Dot_17" d="M1322.13 958.391C1325.82 958.391 1328.81 955.397 1328.81 951.704C1328.81 948.011 1325.82 945.018 1322.13 945.018C1318.43 945.018 1315.44 948.011 1315.44 951.704C1315.44 955.397 1318.43 958.391 1322.13 958.391Z" fill="#FDCB6E"/>
<path id="Dot_18" d="M1344.42 936.102C1348.11 936.102 1351.1 933.109 1351.1 929.416C1351.1 925.723 1348.11 922.729 1344.42 922.729C1340.72 922.729 1337.73 925.723 1337.73 929.416C1337.73 933.109 1340.72 936.102 1344.42 936.102Z" fill="#FDCB6E"/>
<path id="Dot_19" d="M1366.7 958.391C1370.4 958.391 1373.39 955.397 1373.39 951.704C1373.39 948.011 1370.4 945.018 1366.7 945.018C1363.01 945.018 1360.02 948.011 1360.02 951.704C1360.02 955.397 1363.01 958.391 1366.7 958.391Z" fill="#FDCB6E"/>
<path id="Dot_20" d="M1388.99 936.102C1392.69 936.102 1395.68 933.109 1395.68 929.416C1395.68 925.723 1392.69 922.729 1388.99 922.729C1385.3 922.729 1382.31 925.723 1382.31 929.416C1382.31 933.109 1385.3 936.102 1388.99 936.102Z" fill="#FDCB6E"/>
<path id="Dot_21" d="M1411.28 958.391C1414.97 958.391 1417.97 955.397 1417.97 951.704C1417.97 948.011 1414.97 945.018 1411.28 945.018C1407.59 945.018 1404.59 948.011 1404.59 951.704C1404.59 955.397 1407.59 958.391 1411.28 958.391Z" fill="#FDCB6E"/>
<path id="Dot_22" d="M1344.42 980.679C1348.11 980.679 1351.1 977.685 1351.1 973.992C1351.1 970.3 1348.11 967.306 1344.42 967.306C1340.72 967.306 1337.73 970.3 1337.73 973.992C1337.73 977.685 1340.72 980.679 1344.42 980.679Z" fill="#FDCB6E"/>
<path id="Dot_23" d="M1366.7 1002.97C1370.4 1002.97 1373.39 999.973 1373.39 996.28C1373.39 992.588 1370.4 989.594 1366.7 989.594C1363.01 989.594 1360.02 992.588 1360.02 996.28C1360.02 999.973 1363.01 1002.97 1366.7 1002.97Z" fill="#FDCB6E"/>
<path id="Dot_24" d="M1388.99 980.679C1392.69 980.679 1395.68 977.685 1395.68 973.992C1395.68 970.3 1392.69 967.306 1388.99 967.306C1385.3 967.306 1382.31 970.3 1382.31 973.992C1382.31 977.685 1385.3 980.679 1388.99 980.679Z" fill="#FDCB6E"/>
<path id="Dot_25" d="M1411.28 1002.97C1414.97 1002.97 1417.97 999.973 1417.97 996.28C1417.97 992.588 1414.97 989.594 1411.28 989.594C1407.59 989.594 1404.59 992.588 1404.59 996.28C1404.59 999.973 1407.59 1002.97 1411.28 1002.97Z" fill="#FDCB6E"/>
<path id="Dot_26" d="M1388.99 1025.26C1392.69 1025.26 1395.68 1022.26 1395.68 1018.57C1395.68 1014.88 1392.69 1011.88 1388.99 1011.88C1385.3 1011.88 1382.31 1014.88 1382.31 1018.57C1382.31 1022.26 1385.3 1025.26 1388.99 1025.26Z" fill="#FDCB6E"/>
<path id="Dot_27" d="M1411.28 1047.54C1414.97 1047.54 1417.97 1044.55 1417.97 1040.86C1417.97 1037.16 1414.97 1034.17 1411.28 1034.17C1407.59 1034.17 1404.59 1037.16 1404.59 1040.86C1404.59 1044.55 1407.59 1047.54 1411.28 1047.54Z" fill="#FDCB6E"/>
</g>
</g>
<g id="Shape 2" opacity="0.4">
<rect id="Rectangle" width="1376.03" height="767.907" rx="99" transform="matrix(0.707107 0.707107 0.707107 -0.707107 538 505)" fill="#FFEAA7"/>
</g>
</g>
<defs>
<clipPath id="clip0_8_4325">
<rect width="209" height="285" fill="white" transform="translate(1204 789)"/>
</clipPath>
</defs>
</svg>
