<svg width="41" height="40" viewBox="0 0 41 40" fill="none" xmlns="http://www.w3.org/2000/svg">
<path d="M30.9572 14.42C30.8384 13.9454 30.5965 13.5106 30.2559 13.1594C29.9152 12.8082 29.488 12.5532 29.0172 12.42C27.2972 12 20.4172 12 20.4172 12C20.4172 12 13.5372 12 11.8172 12.46C11.3464 12.5932 10.9192 12.8482 10.5785 13.1994C10.2379 13.5506 9.99599 13.9854 9.8772 14.46C9.56241 16.2056 9.40843 17.9763 9.4172 19.75C9.40598 21.537 9.55997 23.3213 9.8772 25.08C10.0082 25.5398 10.2555 25.9581 10.5953 26.2945C10.9352 26.6308 11.356 26.8738 11.8172 27C13.5372 27.46 20.4172 27.46 20.4172 27.46C20.4172 27.46 27.2972 27.46 29.0172 27C29.488 26.8668 29.9152 26.6118 30.2559 26.2606C30.5965 25.9094 30.8384 25.4746 30.9572 25C31.2696 23.2676 31.4235 21.5103 31.4172 19.75C31.4284 17.963 31.2744 16.1787 30.9572 14.42V14.42Z" stroke="#2D3436" stroke-width="2" stroke-linecap="round" stroke-linejoin="round"/>
<path d="M18.1672 23.02L23.9172 19.75L18.1672 16.48V23.02Z" stroke="#2D3436" stroke-width="2" stroke-linecap="round" stroke-linejoin="round"/>
</svg>
