<svg width="41" height="40" viewBox="0 0 41 40" fill="none" xmlns="http://www.w3.org/2000/svg">
<path d="M31.4166 11.0101C30.459 11.6855 29.3987 12.2022 28.2766 12.5401C27.6744 11.8476 26.874 11.3567 25.9837 11.134C25.0934 10.9112 24.1561 10.9673 23.2987 11.2945C22.4413 11.6218 21.7051 12.2045 21.1896 12.9638C20.6741 13.7231 20.4043 14.6224 20.4166 15.5401V16.5401C18.6593 16.5856 16.9179 16.1959 15.3476 15.4055C13.7774 14.6151 12.4269 13.4487 11.4166 12.0101C11.4166 12.0101 7.41663 21.0101 16.4166 25.0101C14.3572 26.408 11.9038 27.109 9.41663 27.0101C18.4166 32.0101 29.4166 27.0101 29.4166 15.5101C29.4157 15.2315 29.3889 14.9537 29.3366 14.6801C30.3572 13.6735 31.0775 12.4028 31.4166 11.0101V11.0101Z" stroke="#2D3436" stroke-width="2" stroke-linecap="round" stroke-linejoin="round"/>
</svg>
