<svg width="41" height="40" viewBox="0 0 41 40" fill="none" xmlns="http://www.w3.org/2000/svg">
<path d="M24.4166 16C26.0079 16 27.534 16.6321 28.6593 17.7574C29.7845 18.8826 30.4166 20.4087 30.4166 22V29H26.4166V22C26.4166 21.4696 26.2059 20.9609 25.8308 20.5858C25.4558 20.2107 24.9471 20 24.4166 20C23.8862 20 23.3775 20.2107 23.0024 20.5858C22.6273 20.9609 22.4166 21.4696 22.4166 22V29H18.4166V22C18.4166 20.4087 19.0488 18.8826 20.174 17.7574C21.2992 16.6321 22.8253 16 24.4166 16V16Z" stroke="#2D3436" stroke-width="2" stroke-linecap="round" stroke-linejoin="round"/>
<path d="M14.4166 17H10.4166V29H14.4166V17Z" stroke="#2D3436" stroke-width="2" stroke-linecap="round" stroke-linejoin="round"/>
<path d="M12.4166 14C13.5212 14 14.4166 13.1046 14.4166 12C14.4166 10.8954 13.5212 10 12.4166 10C11.3121 10 10.4166 10.8954 10.4166 12C10.4166 13.1046 11.3121 14 12.4166 14Z" stroke="#2D3436" stroke-width="2" stroke-linecap="round" stroke-linejoin="round"/>
</svg>
