<svg width="157" height="76" viewBox="0 0 157 76" fill="none" xmlns="http://www.w3.org/2000/svg">
<path d="M25.98 52.52H20.74L19.9 55H16.32L21.4 40.96H25.36L30.44 55H26.82L25.98 52.52ZM25.1 49.88L23.36 44.74L21.64 49.88H25.1ZM38.7861 43.72C40.0928 43.72 41.1328 44.1467 41.9061 45C42.6928 45.84 43.0861 47 43.0861 48.48V55H39.6861V48.94C39.6861 48.1934 39.4928 47.6134 39.1061 47.2C38.7194 46.7867 38.1994 46.58 37.5461 46.58C36.8928 46.58 36.3728 46.7867 35.9861 47.2C35.5994 47.6134 35.4061 48.1934 35.4061 48.94V55H31.9861V43.84H35.4061V45.32C35.7528 44.8267 36.2194 44.44 36.8061 44.16C37.3928 43.8667 38.0528 43.72 38.7861 43.72ZM44.7827 49.4C44.7827 48.2534 44.996 47.2467 45.4227 46.38C45.8627 45.5134 46.456 44.8467 47.2027 44.38C47.9493 43.9134 48.7827 43.68 49.7027 43.68C50.436 43.68 51.1027 43.8334 51.7027 44.14C52.316 44.4467 52.796 44.86 53.1427 45.38V40.2H56.5627V55H53.1427V53.4C52.8227 53.9334 52.3627 54.36 51.7627 54.68C51.176 55 50.4893 55.16 49.7027 55.16C48.7827 55.16 47.9493 54.9267 47.2027 54.46C46.456 53.98 45.8627 53.3067 45.4227 52.44C44.996 51.56 44.7827 50.5467 44.7827 49.4ZM53.1427 49.42C53.1427 48.5667 52.9027 47.8934 52.4227 47.4C51.956 46.9067 51.3827 46.66 50.7027 46.66C50.0227 46.66 49.4427 46.9067 48.9627 47.4C48.496 47.88 48.2627 48.5467 48.2627 49.4C48.2627 50.2534 48.496 50.9334 48.9627 51.44C49.4427 51.9334 50.0227 52.18 50.7027 52.18C51.3827 52.18 51.956 51.9334 52.4227 51.44C52.9027 50.9467 53.1427 50.2734 53.1427 49.42ZM62.4569 45.7C62.8569 45.0867 63.3569 44.6067 63.9569 44.26C64.5569 43.9 65.2235 43.72 65.9569 43.72V47.34H65.0169C64.1635 47.34 63.5235 47.5267 63.0969 47.9C62.6702 48.26 62.4569 48.9 62.4569 49.82V55H59.0369V43.84H62.4569V45.7ZM72.6716 55.16C71.5782 55.16 70.5916 54.9267 69.7116 54.46C68.8449 53.9934 68.1582 53.3267 67.6516 52.46C67.1582 51.5934 66.9116 50.58 66.9116 49.42C66.9116 48.2734 67.1649 47.2667 67.6716 46.4C68.1782 45.52 68.8716 44.8467 69.7516 44.38C70.6316 43.9134 71.6182 43.68 72.7116 43.68C73.8049 43.68 74.7916 43.9134 75.6716 44.38C76.5516 44.8467 77.2449 45.52 77.7516 46.4C78.2582 47.2667 78.5116 48.2734 78.5116 49.42C78.5116 50.5667 78.2516 51.58 77.7316 52.46C77.2249 53.3267 76.5249 53.9934 75.6316 54.46C74.7516 54.9267 73.7649 55.16 72.6716 55.16ZM72.6716 52.2C73.3249 52.2 73.8782 51.96 74.3316 51.48C74.7982 51 75.0316 50.3134 75.0316 49.42C75.0316 48.5267 74.8049 47.84 74.3516 47.36C73.9116 46.88 73.3649 46.64 72.7116 46.64C72.0449 46.64 71.4916 46.88 71.0516 47.36C70.6116 47.8267 70.3916 48.5134 70.3916 49.42C70.3916 50.3134 70.6049 51 71.0316 51.48C71.4716 51.96 72.0182 52.2 72.6716 52.2ZM94.5659 43.72C95.9526 43.72 97.0526 44.14 97.8659 44.98C98.6926 45.82 99.1059 46.9867 99.1059 48.48V55H95.7059V48.94C95.7059 48.22 95.5126 47.6667 95.1259 47.28C94.7526 46.88 94.2326 46.68 93.5659 46.68C92.8993 46.68 92.3726 46.88 91.9859 47.28C91.6126 47.6667 91.4259 48.22 91.4259 48.94V55H88.0259V48.94C88.0259 48.22 87.8326 47.6667 87.4459 47.28C87.0726 46.88 86.5526 46.68 85.8859 46.68C85.2193 46.68 84.6926 46.88 84.3059 47.28C83.9326 47.6667 83.7459 48.22 83.7459 48.94V55H80.3259V43.84H83.7459V45.24C84.0926 44.7734 84.5459 44.4067 85.1059 44.14C85.6659 43.86 86.2993 43.72 87.0059 43.72C87.8459 43.72 88.5926 43.9 89.2459 44.26C89.9126 44.62 90.4326 45.1334 90.8059 45.8C91.1926 45.1867 91.7193 44.6867 92.3859 44.3C93.0526 43.9134 93.7793 43.72 94.5659 43.72ZM103.218 42.68C102.618 42.68 102.124 42.5067 101.738 42.16C101.364 41.8 101.178 41.36 101.178 40.84C101.178 40.3067 101.364 39.8667 101.738 39.52C102.124 39.16 102.618 38.98 103.218 38.98C103.804 38.98 104.284 39.16 104.658 39.52C105.044 39.8667 105.238 40.3067 105.238 40.84C105.238 41.36 105.044 41.8 104.658 42.16C104.284 42.5067 103.804 42.68 103.218 42.68ZM104.918 43.84V55H101.498V43.84H104.918ZM114.196 43.72C115.503 43.72 116.543 44.1467 117.316 45C118.103 45.84 118.496 47 118.496 48.48V55H115.096V48.94C115.096 48.1934 114.903 47.6134 114.516 47.2C114.13 46.7867 113.61 46.58 112.956 46.58C112.303 46.58 111.783 46.7867 111.396 47.2C111.01 47.6134 110.816 48.1934 110.816 48.94V55H107.396V43.84H110.816V45.32C111.163 44.8267 111.63 44.44 112.216 44.16C112.803 43.8667 113.463 43.72 114.196 43.72ZM120.193 49.4C120.193 48.2534 120.406 47.2467 120.833 46.38C121.273 45.5134 121.866 44.8467 122.613 44.38C123.359 43.9134 124.193 43.68 125.113 43.68C125.899 43.68 126.586 43.84 127.173 44.16C127.773 44.48 128.233 44.9 128.553 45.42V43.84H131.973V55H128.553V53.42C128.219 53.94 127.753 54.36 127.153 54.68C126.566 55 125.879 55.16 125.093 55.16C124.186 55.16 123.359 54.9267 122.613 54.46C121.866 53.98 121.273 53.3067 120.833 52.44C120.406 51.56 120.193 50.5467 120.193 49.4ZM128.553 49.42C128.553 48.5667 128.313 47.8934 127.833 47.4C127.366 46.9067 126.793 46.66 126.113 46.66C125.433 46.66 124.853 46.9067 124.373 47.4C123.906 47.88 123.673 48.5467 123.673 49.4C123.673 50.2534 123.906 50.9334 124.373 51.44C124.853 51.9334 125.433 52.18 126.113 52.18C126.793 52.18 127.366 51.9334 127.833 51.44C128.313 50.9467 128.553 50.2734 128.553 49.42Z" fill="white"/>
<path d="M1.3503 52.3048L0.239992 51.2962L2.11977 53.5924L1.3503 52.3048ZM66.2901 14.7325C66.4925 13.9292 66.0053 13.1139 65.2019 12.9116L52.1108 9.61421C51.3075 9.41186 50.4922 9.89906 50.2899 10.7024C50.0875 11.5057 50.5747 12.321 51.378 12.5233L63.0146 15.4543L60.0836 27.0909C59.8812 27.8942 60.3684 28.7095 61.1718 28.9118C61.9751 29.1142 62.7904 28.627 62.9927 27.8236L66.2901 14.7325ZM26.0868 22.8421L0.239992 51.2962L2.46061 53.3134L28.3074 24.8592L26.0868 22.8421ZM2.11977 53.5924L65.605 15.6538L64.0661 13.0786L0.580834 51.0172L2.11977 53.5924Z" fill="url(#paint0_linear_8_4891)"/>
<defs>
<linearGradient id="paint0_linear_8_4891" x1="35.9812" y1="16.0649" x2="50.5619" y2="32.7819" gradientUnits="userSpaceOnUse">
<stop stop-color="#4200FF" stop-opacity="0.91"/>
<stop offset="1" stop-color="#B325E4"/>
</linearGradient>
</defs>
</svg>
