<svg width="44" height="44" viewBox="0 0 44 44" fill="none" xmlns="http://www.w3.org/2000/svg">
<path d="M12.6691 15.0095C12.6691 11.8138 13.4527 8.82408 14.8099 6.24314C15.1387 5.61883 14.6429 4.84734 14.0071 5.02626C6.67879 7.0964 1.37843 14.7151 2.0588 23.5825C2.70243 31.9525 8.85194 38.7843 16.4557 39.5673C21.7316 40.1108 26.5274 37.8252 29.7665 33.9418C30.2038 33.4166 29.8304 32.5643 29.1841 32.5941C29.0127 32.6027 28.8387 32.6066 28.6647 32.6066C19.8304 32.6066 12.6691 24.7291 12.6691 15.0095Z" fill="white" stroke="white" stroke-width="1.39921"/>
<path d="M22.2398 5.71022L23.0417 8.24306L25.4798 8.30174C25.7894 8.30943 25.9153 8.74039 25.6704 8.94529L23.7282 10.5681L24.4321 13.1356C24.5231 13.4607 24.1881 13.7262 23.9354 13.5338L21.9311 12.0043L19.9284 13.5338C19.6748 13.7272 19.3434 13.4607 19.4308 13.1356L20.1348 10.5681L18.1926 8.94529C17.9477 8.74039 18.0754 8.30943 18.3832 8.30174L20.8213 8.24306L21.6241 5.71022C21.7255 5.38989 22.1374 5.38989 22.2398 5.71022Z" fill="white" stroke="white" stroke-width="1.39921"/>
<path d="M37.2077 25.7575L37.9782 28.1912L40.321 28.2461C40.6612 28.2547 40.8011 28.729 40.5309 28.955L38.6647 30.5144L39.3398 32.9808C39.4369 33.3377 39.0696 33.6321 38.7915 33.4175L36.8667 31.9486L34.9428 33.4175C34.6647 33.6321 34.2965 33.3377 34.3953 32.9808L35.0705 30.5144L33.2051 28.955C32.9341 28.7299 33.0748 28.2537 33.4133 28.2461L35.7561 28.1912L36.5291 25.7575C36.6411 25.4054 37.0949 25.4054 37.2077 25.7575Z" fill="white" stroke="white" stroke-width="1.39921"/>
<path d="M36.9157 8.11313L38.0744 11.7676L41.5908 11.8503C41.9861 11.86 42.1496 12.4121 41.8339 12.6757L39.032 15.0171L40.0482 18.7235C40.1627 19.1401 39.7369 19.4816 39.4107 19.2324L36.5196 17.0257L33.6293 19.2324C33.304 19.4816 32.8773 19.1391 32.9918 18.7235L34.0071 15.0171L31.2043 12.6757C30.8913 12.4131 31.0539 11.859 31.4483 11.8503L34.9656 11.7676L36.1234 8.11313C36.2572 7.70334 36.7845 7.70334 36.9157 8.11313Z" fill="white" stroke="white" stroke-width="1.39921"/>
</svg>
