<svg width="156" height="54" viewBox="0 0 156 54" fill="none" xmlns="http://www.w3.org/2000/svg">
<path d="M25.8838 46.0538H20.6438L19.8038 48.5338H16.2238L21.3038 34.4938H25.2638L30.3438 48.5338H26.7238L25.8838 46.0538ZM25.0038 43.4138L23.2638 38.2738L21.5438 43.4138H25.0038ZM38.6899 37.2538C39.9966 37.2538 41.0366 37.6805 41.8099 38.5338C42.5966 39.3738 42.9899 40.5338 42.9899 42.0138V48.5338H39.5899V42.4738C39.5899 41.7271 39.3966 41.1471 39.0099 40.7338C38.6232 40.3205 38.1032 40.1138 37.4499 40.1138C36.7966 40.1138 36.2766 40.3205 35.8899 40.7338C35.5032 41.1471 35.3099 41.7271 35.3099 42.4738V48.5338H31.8899V37.3738H35.3099V38.8538C35.6566 38.3605 36.1232 37.9738 36.7099 37.6938C37.2966 37.4005 37.9566 37.2538 38.6899 37.2538ZM44.6865 42.9338C44.6865 41.7871 44.8998 40.7805 45.3265 39.9138C45.7665 39.0471 46.3598 38.3805 47.1065 37.9138C47.8531 37.4471 48.6865 37.2138 49.6065 37.2138C50.3398 37.2138 51.0065 37.3671 51.6065 37.6738C52.2198 37.9805 52.6998 38.3938 53.0465 38.9138V33.7338H56.4665V48.5338H53.0465V46.9338C52.7265 47.4671 52.2665 47.8938 51.6665 48.2138C51.0798 48.5338 50.3931 48.6938 49.6065 48.6938C48.6865 48.6938 47.8531 48.4605 47.1065 47.9938C46.3598 47.5138 45.7665 46.8405 45.3265 45.9738C44.8998 45.0938 44.6865 44.0805 44.6865 42.9338ZM53.0465 42.9538C53.0465 42.1005 52.8065 41.4271 52.3265 40.9338C51.8598 40.4405 51.2865 40.1938 50.6065 40.1938C49.9265 40.1938 49.3465 40.4405 48.8665 40.9338C48.3998 41.4138 48.1665 42.0805 48.1665 42.9338C48.1665 43.7871 48.3998 44.4671 48.8665 44.9738C49.3465 45.4671 49.9265 45.7138 50.6065 45.7138C51.2865 45.7138 51.8598 45.4671 52.3265 44.9738C52.8065 44.4805 53.0465 43.8071 53.0465 42.9538ZM62.3607 39.2338C62.7607 38.6205 63.2607 38.1405 63.8607 37.7938C64.4607 37.4338 65.1274 37.2538 65.8607 37.2538V40.8738H64.9207C64.0674 40.8738 63.4274 41.0605 63.0007 41.4338C62.574 41.7938 62.3607 42.4338 62.3607 43.3538V48.5338H58.9407V37.3738H62.3607V39.2338ZM72.5754 48.6938C71.482 48.6938 70.4954 48.4605 69.6154 47.9938C68.7487 47.5271 68.062 46.8605 67.5554 45.9938C67.062 45.1271 66.8154 44.1138 66.8154 42.9538C66.8154 41.8071 67.0687 40.8005 67.5754 39.9338C68.082 39.0538 68.7754 38.3805 69.6554 37.9138C70.5354 37.4471 71.522 37.2138 72.6154 37.2138C73.7087 37.2138 74.6954 37.4471 75.5754 37.9138C76.4554 38.3805 77.1487 39.0538 77.6554 39.9338C78.162 40.8005 78.4154 41.8071 78.4154 42.9538C78.4154 44.1005 78.1554 45.1138 77.6354 45.9938C77.1287 46.8605 76.4287 47.5271 75.5354 47.9938C74.6554 48.4605 73.6687 48.6938 72.5754 48.6938ZM72.5754 45.7338C73.2287 45.7338 73.782 45.4938 74.2354 45.0138C74.702 44.5338 74.9354 43.8471 74.9354 42.9538C74.9354 42.0605 74.7087 41.3738 74.2554 40.8938C73.8154 40.4138 73.2687 40.1738 72.6154 40.1738C71.9487 40.1738 71.3954 40.4138 70.9554 40.8938C70.5154 41.3605 70.2954 42.0471 70.2954 42.9538C70.2954 43.8471 70.5087 44.5338 70.9354 45.0138C71.3754 45.4938 71.922 45.7338 72.5754 45.7338ZM94.4697 37.2538C95.8564 37.2538 96.9564 37.6738 97.7697 38.5138C98.5964 39.3538 99.0097 40.5205 99.0097 42.0138V48.5338H95.6097V42.4738C95.6097 41.7538 95.4164 41.2005 95.0297 40.8138C94.6564 40.4138 94.1364 40.2138 93.4697 40.2138C92.8031 40.2138 92.2764 40.4138 91.8897 40.8138C91.5164 41.2005 91.3297 41.7538 91.3297 42.4738V48.5338H87.9297V42.4738C87.9297 41.7538 87.7364 41.2005 87.3497 40.8138C86.9764 40.4138 86.4564 40.2138 85.7897 40.2138C85.1231 40.2138 84.5964 40.4138 84.2097 40.8138C83.8364 41.2005 83.6497 41.7538 83.6497 42.4738V48.5338H80.2297V37.3738H83.6497V38.7738C83.9964 38.3071 84.4497 37.9405 85.0097 37.6738C85.5697 37.3938 86.2031 37.2538 86.9097 37.2538C87.7497 37.2538 88.4964 37.4338 89.1497 37.7938C89.8164 38.1538 90.3364 38.6671 90.7097 39.3338C91.0964 38.7205 91.6231 38.2205 92.2897 37.8338C92.9564 37.4471 93.6831 37.2538 94.4697 37.2538ZM103.122 36.2138C102.522 36.2138 102.028 36.0405 101.642 35.6938C101.268 35.3338 101.082 34.8938 101.082 34.3738C101.082 33.8405 101.268 33.4005 101.642 33.0538C102.028 32.6938 102.522 32.5138 103.122 32.5138C103.708 32.5138 104.188 32.6938 104.562 33.0538C104.948 33.4005 105.142 33.8405 105.142 34.3738C105.142 34.8938 104.948 35.3338 104.562 35.6938C104.188 36.0405 103.708 36.2138 103.122 36.2138ZM104.822 37.3738V48.5338H101.402V37.3738H104.822ZM114.1 37.2538C115.407 37.2538 116.447 37.6805 117.22 38.5338C118.007 39.3738 118.4 40.5338 118.4 42.0138V48.5338H115V42.4738C115 41.7271 114.807 41.1471 114.42 40.7338C114.033 40.3205 113.513 40.1138 112.86 40.1138C112.207 40.1138 111.687 40.3205 111.3 40.7338C110.913 41.1471 110.72 41.7271 110.72 42.4738V48.5338H107.3V37.3738H110.72V38.8538C111.067 38.3605 111.533 37.9738 112.12 37.6938C112.707 37.4005 113.367 37.2538 114.1 37.2538ZM120.097 42.9338C120.097 41.7871 120.31 40.7805 120.737 39.9138C121.177 39.0471 121.77 38.3805 122.517 37.9138C123.263 37.4471 124.097 37.2138 125.017 37.2138C125.803 37.2138 126.49 37.3738 127.077 37.6938C127.677 38.0138 128.137 38.4338 128.457 38.9538V37.3738H131.877V48.5338H128.457V46.9538C128.123 47.4738 127.657 47.8938 127.057 48.2138C126.47 48.5338 125.783 48.6938 124.997 48.6938C124.09 48.6938 123.263 48.4605 122.517 47.9938C121.77 47.5138 121.177 46.8405 120.737 45.9738C120.31 45.0938 120.097 44.0805 120.097 42.9338ZM128.457 42.9538C128.457 42.1005 128.217 41.4271 127.737 40.9338C127.27 40.4405 126.697 40.1938 126.017 40.1938C125.337 40.1938 124.757 40.4405 124.277 40.9338C123.81 41.4138 123.577 42.0805 123.577 42.9338C123.577 43.7871 123.81 44.4671 124.277 44.9738C124.757 45.4671 125.337 45.7138 126.017 45.7138C126.697 45.7138 127.27 45.4671 127.737 44.9738C128.217 44.4805 128.457 43.8071 128.457 42.9538Z" fill="white"/>
<path d="M1.34806 42.0559L0.135968 41.1656L2.17747 43.1998L1.34806 42.0559ZM66.0201 11.8729C66.2524 11.1572 65.7273 10.4329 64.8471 10.2552L50.5036 7.35947C49.6234 7.18177 48.7215 7.61794 48.4891 8.33368C48.2568 9.04941 48.7819 9.77368 49.6621 9.95138L62.4119 12.5254L59.0458 22.893C58.8134 23.6087 59.3386 24.333 60.2187 24.5107C61.0989 24.6884 62.0008 24.2522 62.2332 23.5365L66.0201 11.8729ZM25.817 18.2869L0.135968 41.1656L2.56015 42.9462L28.2412 20.0675L25.817 18.2869ZM2.17747 43.1998L65.2557 12.6951L63.5969 10.4073L0.518648 40.912L2.17747 43.1998Z" fill="url(#paint0_linear_8_4891)"/>
<defs>
<linearGradient id="paint0_linear_8_4891" x1="35.757" y1="12.917" x2="46.9068" y2="28.714" gradientUnits="userSpaceOnUse">
<stop stop-color="#4200FF" stop-opacity="0.91"/>
<stop offset="1" stop-color="#B325E4"/>
</linearGradient>
</defs>
</svg>
