<svg width="375" height="295" viewBox="0 0 375 295" fill="none" xmlns="http://www.w3.org/2000/svg">
<g id="12">
<g id="Group 32951">
<path id="Vector" d="M210.222 44.2317L181.222 131.462C180.224 133.821 177.827 135.847 174.527 137.12C171.227 138.392 167.279 138.812 163.501 138.294C159.724 137.776 156.407 136.359 154.239 134.337C152.072 132.315 151.22 129.843 151.86 127.434C151.86 127.434 174.123 63.4024 174.888 62.5688V62.5559L164.025 51.8184C163.78 51.5735 163.697 51.2772 163.796 50.9941C163.895 50.7109 164.166 50.4639 164.552 50.3067L165.095 50.0907C165.483 49.936 165.951 49.8839 166.399 49.9457C166.847 50.0076 167.238 50.1784 167.488 50.4211L176.143 58.9537L180.71 40.4935C180.743 40.2035 180.956 39.9336 181.303 39.7426C181.651 39.5516 182.103 39.4552 182.562 39.4742L183.205 39.5001C183.665 39.5206 184.093 39.6552 184.396 39.8745C184.699 40.0939 184.852 40.3801 184.822 40.6706L184.032 50.3887L187.792 50.8206L191.853 40.8671C191.951 40.585 192.222 40.3387 192.606 40.1818C192.99 40.0249 193.456 39.9701 193.904 40.0292L194.536 40.1156C194.983 40.1777 195.373 40.3486 195.621 40.5912C195.869 40.8338 195.956 41.1285 195.862 41.4113L192.414 51.4512L196.252 51.976L199.701 41.9383C199.799 41.6561 200.07 41.4099 200.454 41.253C200.838 41.0961 201.304 41.0412 201.752 41.1003L202.384 41.1867C202.831 41.2489 203.221 41.4198 203.469 41.6624C203.717 41.905 203.804 42.1997 203.711 42.4825L200.265 52.5202L203 52.896L206.175 43.6573C206.274 43.3751 206.544 43.1289 206.928 42.972C207.312 42.8151 207.778 42.7603 208.226 42.8194L208.858 42.9057C209.088 42.9336 209.306 42.9904 209.5 43.0728C209.694 43.1552 209.86 43.2615 209.987 43.3854C210.114 43.5092 210.201 43.648 210.241 43.7934C210.282 43.9388 210.275 44.0879 210.222 44.2317V44.2317Z" stroke="black" stroke-linecap="square" stroke-linejoin="round"/>
<path id="Vector_2" d="M229.221 223.558L236.218 236.399L247.303 233.986L249.928 230.587L254.895 232.118L295.855 223.212L258.785 217.129L229.221 223.558Z" fill="black"/>
<path id="Vector_3" d="M242.524 164.521L270.929 216.664L224.736 226.717L196.331 174.574L136.895 187.488C133.86 188.154 130.647 188.434 127.439 188.314C124.232 188.193 121.094 187.674 118.205 186.786C115.316 185.898 112.732 184.659 110.602 183.14C108.472 181.62 106.837 179.85 105.792 177.93C104.746 176.011 104.31 173.98 104.509 171.954C104.708 169.928 105.537 167.947 106.949 166.124C108.362 164.301 110.33 162.671 112.74 161.33C115.151 159.988 117.957 158.959 120.997 158.303L180.433 145.38C192.684 142.718 206.108 143.238 217.752 146.828C229.396 150.417 238.306 156.781 242.524 164.521Z" fill="#6935FF"/>
<path id="Vector_4" d="M43.0044 233.263L22.2902 236.889L25.4178 244.026L30.6305 245.892L27.9062 248.931L39.4734 275.304L51.3516 252.3L43.0044 233.263Z" fill="black"/>
<path id="Vector_5" d="M135.46 245.264L51.3447 259.988L38.3009 230.244L122.416 215.52L105.632 177.247C104.76 175.291 104.508 173.246 104.89 171.228C105.273 169.21 106.282 167.26 107.861 165.489C109.439 163.718 111.556 162.162 114.089 160.909C116.622 159.657 119.522 158.733 122.621 158.19C125.721 157.647 128.96 157.497 132.153 157.747C135.345 157.998 138.427 158.644 141.223 159.649C144.019 160.654 146.473 161.998 148.444 163.604C150.416 165.21 151.866 167.046 152.711 169.006L169.495 207.281C172.953 215.169 171.31 223.603 164.927 230.726C158.545 237.85 147.945 243.08 135.46 245.266V245.264Z" fill="#6935FF"/>
<path id="Vector_6" d="M134.807 116.593C141.643 116.593 147.184 113.092 147.184 108.773C147.184 104.454 141.643 100.953 134.807 100.953C127.971 100.953 122.43 104.454 122.43 108.773C122.43 113.092 127.971 116.593 134.807 116.593Z" fill="#FFB942"/>
<path id="Vector_7" d="M186.165 142.292L95.1694 148.123C95.2542 140.96 99.5226 134.069 107.156 128.773C114.789 123.477 125.249 120.148 136.528 119.425C147.808 118.702 159.113 120.636 168.274 124.857C177.434 129.077 183.806 135.286 186.165 142.292Z" fill="#FF026C"/>
<path id="Vector_8" d="M181.052 57.3726V57.3852V57.3663V57.3726Z" stroke="black" stroke-linecap="square" stroke-linejoin="round"/>
<path id="Vector_9" d="M45.1852 54.6301L94.5132 138.144C95.1993 139.322 96.2486 140.402 97.6003 141.323C98.952 142.243 100.579 142.985 102.388 143.505C104.196 144.025 106.15 144.313 108.136 144.353C110.123 144.393 112.102 144.183 113.959 143.737C115.816 143.29 117.514 142.615 118.955 141.75C120.396 140.886 121.552 139.849 122.355 138.701C123.158 137.553 123.592 136.315 123.632 135.06C123.673 133.804 123.318 132.557 122.59 131.388C122.59 131.388 85.4071 70.1792 84.4637 69.4276V69.4168L92.6673 57.7788C92.7617 57.6474 92.8141 57.5055 92.8215 57.3613C92.8289 57.217 92.7912 57.0733 92.7105 56.9383C92.6299 56.8033 92.5079 56.6797 92.3515 56.5745C92.1951 56.4693 92.0074 56.3847 91.7991 56.3254L91.2078 56.1591C90.7874 56.041 90.3102 56.0328 89.8803 56.1364C89.4505 56.24 89.1031 56.447 88.9142 56.712L82.3786 65.9658L73.4913 48.1449C73.3892 47.8613 73.1138 47.6147 72.7251 47.459C72.3364 47.3032 71.866 47.2509 71.4164 47.3134L70.7875 47.3998C70.3376 47.4633 69.9459 47.637 69.6985 47.8828C69.4511 48.1286 69.3682 48.4263 69.4681 48.7107L72.5444 58.2496L68.928 59.0335L62.5565 49.5745C62.3919 49.3033 62.0638 49.0843 61.6441 48.9657C61.2244 48.8471 60.7473 48.8385 60.3176 48.9418L59.7125 49.0865C59.2826 49.19 58.9352 49.3971 58.7468 49.6624C58.5584 49.9276 58.5443 50.2292 58.7076 50.501L64.498 60.1025L60.8235 60.9836L55.0399 51.3864C54.8753 51.1146 54.5468 50.8951 54.1264 50.7761C53.7061 50.6571 53.2282 50.6482 52.7975 50.7515L52.1925 50.8962C51.7629 51.0006 51.4163 51.2083 51.2286 51.4738C51.0409 51.7394 51.0274 52.0411 51.191 52.3129L56.9746 61.9123L54.3528 62.5429L49.0273 53.708C48.8619 53.4365 48.5334 53.2174 48.1133 53.0985C47.6932 52.9795 47.2157 52.9704 46.7849 53.0731L46.1799 53.2199C45.7535 53.3247 45.4098 53.5317 45.2235 53.7958C45.0372 54.0598 45.0235 54.3597 45.1852 54.6301V54.6301Z" stroke="black" stroke-linecap="square" stroke-linejoin="round"/>
<path id="Vector_10" d="M62.847 278.979H352.71" stroke="black" stroke-linecap="square" stroke-linejoin="round"/>
<path id="Vector_11" d="M284.298 78.9981L268.274 68.0347L246.798 80.5642L262.822 91.5276L284.298 78.9981Z" fill="#02B1FF"/>
<path id="Vector_12" d="M330.204 127.562L320.92 122.264V110.851H300.914L297.677 109.019L300.281 107.251C300.879 106.845 301.344 106.368 301.651 105.849C301.957 105.329 302.098 104.777 302.066 104.222C302.035 103.668 301.831 103.124 301.466 102.619C301.101 102.115 300.582 101.661 299.94 101.284L286.202 93.209C284.904 92.4462 283.179 92.0405 281.407 92.081C279.635 92.1214 277.962 92.6049 276.754 93.4249L267.699 99.5754C267.101 99.9814 266.636 100.458 266.33 100.977C266.024 101.497 265.882 102.05 265.914 102.604C265.946 103.158 266.15 103.702 266.515 104.207C266.88 104.711 267.398 105.165 268.041 105.542L281.779 113.617C283.077 114.38 284.802 114.786 286.573 114.745C288.345 114.705 290.019 114.221 291.227 113.401L294.494 111.181L300.069 114.345V127.272H307.931V278.763H311.691V127.272H320.92V126.24L327.073 129.751L330.204 127.562Z" fill="black"/>
<path id="Vector_13" d="M139.931 93.9022C141.212 92.4586 141.859 90.8248 141.806 89.17C141.752 87.5152 140.999 85.8995 139.626 84.4902C138.252 83.081 136.307 81.9293 133.992 81.1544C131.677 80.3795 129.076 80.0097 126.459 80.083C123.842 80.1564 121.303 80.6704 119.106 81.5718C116.909 82.4732 115.133 83.7292 113.962 85.2099C112.791 86.6905 112.268 88.342 112.447 89.9933C112.625 91.6445 113.499 93.2357 114.978 94.6019C112.975 95.4079 111.339 96.5295 110.231 97.8563C109.123 99.1831 108.581 100.669 108.658 102.169C108.735 103.668 109.429 105.129 110.672 106.407C111.914 107.686 113.662 108.738 115.743 109.46C117.825 110.182 120.168 110.549 122.542 110.525C124.916 110.501 127.24 110.087 129.284 109.323C131.327 108.56 133.021 107.473 134.198 106.17C135.375 104.867 135.995 103.393 135.996 101.893C135.996 101.871 135.996 101.847 135.996 101.826C136.88 102.194 137.887 102.427 138.938 102.508C139.989 102.588 141.055 102.513 142.052 102.289C143.049 102.065 143.951 101.698 144.685 101.216C145.419 100.734 145.966 100.151 146.283 99.5129C146.6 98.8748 146.678 98.1989 146.511 97.5385C146.344 96.878 145.936 96.2512 145.32 95.7072C144.705 95.1633 143.897 94.7171 142.962 94.4039C142.027 94.0906 140.989 93.9189 139.931 93.9022Z" fill="black"/>
<path id="Vector_14" d="M235.124 115.93C235.124 115.93 245.177 115.632 249.781 105.311C249.781 105.311 257.267 115.697 267.32 115.399C267.32 115.399 250.882 120.128 252.088 127.307C252.092 127.305 246.062 118.573 235.124 115.93Z" stroke="black" stroke-linejoin="bevel"/>
<path id="Vector_15" d="M222.292 137.796C222.292 137.796 228.492 137.612 231.336 131.244C231.336 131.244 235.954 137.653 242.158 137.468C242.158 137.468 232.013 140.387 232.758 144.81C232.758 144.817 229.043 139.429 222.292 137.796Z" stroke="black" stroke-linejoin="bevel"/>
<path id="Vector_16" d="M22.5123 97.1416C22.5123 97.1416 32.5652 96.8436 37.1695 86.5229C37.1695 86.5229 44.6554 96.9084 54.7083 96.6103C54.7083 96.6103 38.2702 101.34 39.4768 108.518C39.4802 108.516 33.4505 99.7849 22.5123 97.1416Z" stroke="black" stroke-linejoin="bevel"/>
<path id="Vector_17" d="M52.066 123.111C52.066 123.111 58.2666 122.927 61.1106 116.558C61.1106 116.558 65.7286 122.968 71.9326 122.782C71.9326 122.782 61.7874 125.702 62.5325 130.125C62.5325 130.131 58.817 124.743 52.066 123.111Z" stroke="black" stroke-linejoin="bevel"/>
<path id="Vector_18" d="M139.073 118.953C139.073 118.953 144.439 121.346 144.856 126.898C144.873 127.114 144.884 127.354 144.884 127.592L160.949 125.432C160.949 125.432 152.062 116.146 139.073 118.953Z" fill="black"/>
<path id="Vector_19" d="M194.789 139.47C194.794 134.827 192.225 130.329 187.528 126.759C182.831 123.188 176.303 120.769 169.077 119.922C161.852 119.075 154.385 119.854 147.974 122.123C141.562 124.392 136.611 128.008 133.979 132.343C132.039 132.199 130.088 132.127 128.134 132.127C118.024 132.133 108.162 134.107 99.892 137.781C91.6217 141.455 85.3447 146.651 81.9158 152.66C78.4869 158.669 78.0729 165.199 80.7299 171.362C83.387 177.526 88.9861 183.021 96.7647 187.102C104.543 191.182 114.124 193.649 124.201 194.165C134.278 194.682 144.362 193.224 153.08 189.989C161.799 186.755 168.727 181.901 172.923 176.09C177.118 170.278 178.376 163.791 176.526 157.511C181.979 155.92 186.598 153.375 189.834 150.178C193.071 146.981 194.79 143.265 194.789 139.47Z" fill="#02B1FF"/>
<path id="Vector_20" d="M105.428 158.95L101.783 160.909L123.485 177.031L127.13 175.072L105.428 158.95Z" fill="black"/>
<path id="Vector_21" d="M259.461 89.2158L250.188 82.8688L168.712 130.399C165.103 129.422 161.072 129.259 157.295 129.939C153.519 130.618 150.228 132.099 147.976 134.131C145.725 136.163 144.649 138.623 144.931 141.098C145.212 143.572 146.834 145.91 149.522 147.718C152.211 149.526 155.803 150.693 159.694 151.025C163.586 151.356 167.539 150.831 170.889 149.537C174.24 148.244 176.783 146.261 178.092 143.922C179.4 141.583 179.394 139.031 178.074 136.694L259.461 89.2158Z" fill="black"/>
<path id="Vector_22" d="M109.676 165.169L246.746 88.2874" stroke="black" stroke-linecap="square" stroke-linejoin="round"/>
<path id="Vector_23" d="M111.044 167.76L248.113 90.8789" stroke="black" stroke-linecap="square" stroke-linejoin="round"/>
<path id="Vector_24" d="M115.145 168.84L252.215 91.9587" stroke="black" stroke-linecap="square" stroke-linejoin="round"/>
<path id="Vector_25" d="M210.742 244.441C211.61 244.441 212.314 243.996 212.314 243.447C212.314 242.899 211.61 242.454 210.742 242.454C209.874 242.454 209.17 242.899 209.17 243.447C209.17 243.996 209.874 244.441 210.742 244.441Z" fill="black"/>
<path id="Vector_26" d="M210.742 250.801C211.61 250.801 212.314 250.356 212.314 249.807C212.314 249.259 211.61 248.814 210.742 248.814C209.874 248.814 209.17 249.259 209.17 249.807C209.17 250.356 209.874 250.801 210.742 250.801Z" fill="black"/>
<path id="Vector_27" d="M200.675 250.801C201.544 250.801 202.248 250.356 202.248 249.807C202.248 249.259 201.544 248.814 200.675 248.814C199.807 248.814 199.103 249.259 199.103 249.807C199.103 250.356 199.807 250.801 200.675 250.801Z" fill="black"/>
<path id="Vector_28" d="M190.612 250.801C191.481 250.801 192.185 250.356 192.185 249.807C192.185 249.259 191.481 248.814 190.612 248.814C189.744 248.814 189.04 249.259 189.04 249.807C189.04 250.356 189.744 250.801 190.612 250.801Z" fill="black"/>
<path id="Vector_29" d="M180.546 250.801C181.414 250.801 182.118 250.356 182.118 249.807C182.118 249.259 181.414 248.814 180.546 248.814C179.677 248.814 178.973 249.259 178.973 249.807C178.973 250.356 179.677 250.801 180.546 250.801Z" fill="black"/>
<path id="Vector_30" d="M205.71 247.622C206.579 247.622 207.283 247.177 207.283 246.628C207.283 246.08 206.579 245.635 205.71 245.635C204.842 245.635 204.138 246.08 204.138 246.628C204.138 247.177 204.842 247.622 205.71 247.622Z" fill="black"/>
<path id="Vector_31" d="M195.644 247.622C196.512 247.622 197.216 247.177 197.216 246.628C197.216 246.08 196.512 245.635 195.644 245.635C194.775 245.635 194.071 246.08 194.071 246.628C194.071 247.177 194.775 247.622 195.644 247.622Z" fill="black"/>
<path id="Vector_32" d="M185.577 247.622C186.446 247.622 187.15 247.177 187.15 246.628C187.15 246.08 186.446 245.635 185.577 245.635C184.709 245.635 184.005 246.08 184.005 246.628C184.005 247.177 184.709 247.622 185.577 247.622Z" fill="black"/>
<path id="Vector_33" d="M175.511 247.622C176.379 247.622 177.083 247.177 177.083 246.628C177.083 246.08 176.379 245.635 175.511 245.635C174.642 245.635 173.938 246.08 173.938 246.628C173.938 247.177 174.642 247.622 175.511 247.622Z" fill="black"/>
<path id="Vector_34" d="M200.675 244.441C201.544 244.441 202.248 243.996 202.248 243.447C202.248 242.899 201.544 242.454 200.675 242.454C199.807 242.454 199.103 242.899 199.103 243.447C199.103 243.996 199.807 244.441 200.675 244.441Z" fill="black"/>
<path id="Vector_35" d="M190.612 244.441C191.481 244.441 192.185 243.996 192.185 243.447C192.185 242.899 191.481 242.454 190.612 242.454C189.744 242.454 189.04 242.899 189.04 243.447C189.04 243.996 189.744 244.441 190.612 244.441Z" fill="black"/>
<path id="Vector_36" d="M180.546 244.441C181.414 244.441 182.118 243.996 182.118 243.447C182.118 242.899 181.414 242.454 180.546 242.454C179.677 242.454 178.973 242.899 178.973 243.447C178.973 243.996 179.677 244.441 180.546 244.441Z" fill="black"/>
<path id="Vector_37" d="M205.71 241.262C206.579 241.262 207.283 240.817 207.283 240.269C207.283 239.72 206.579 239.275 205.71 239.275C204.842 239.275 204.138 239.72 204.138 240.269C204.138 240.817 204.842 241.262 205.71 241.262Z" fill="black"/>
<path id="Vector_38" d="M195.644 241.262C196.512 241.262 197.216 240.817 197.216 240.269C197.216 239.72 196.512 239.275 195.644 239.275C194.775 239.275 194.071 239.72 194.071 240.269C194.071 240.817 194.775 241.262 195.644 241.262Z" fill="black"/>
<path id="Vector_39" d="M185.577 241.262C186.446 241.262 187.15 240.817 187.15 240.269C187.15 239.72 186.446 239.275 185.577 239.275C184.709 239.275 184.005 239.72 184.005 240.269C184.005 240.817 184.709 241.262 185.577 241.262Z" fill="black"/>
<path id="Vector_40" d="M190.612 257.161C191.481 257.161 192.185 256.716 192.185 256.167C192.185 255.619 191.481 255.174 190.612 255.174C189.744 255.174 189.04 255.619 189.04 256.167C189.04 256.716 189.744 257.161 190.612 257.161Z" fill="black"/>
<path id="Vector_41" d="M205.71 253.98C206.579 253.98 207.283 253.535 207.283 252.986C207.283 252.438 206.579 251.993 205.71 251.993C204.842 251.993 204.138 252.438 204.138 252.986C204.138 253.535 204.842 253.98 205.71 253.98Z" fill="black"/>
<path id="Vector_42" d="M195.644 253.98C196.512 253.98 197.216 253.535 197.216 252.986C197.216 252.438 196.512 251.993 195.644 251.993C194.775 251.993 194.071 252.438 194.071 252.986C194.071 253.535 194.775 253.98 195.644 253.98Z" fill="black"/>
<path id="Vector_43" d="M185.577 253.98C186.446 253.98 187.15 253.535 187.15 252.986C187.15 252.438 186.446 251.993 185.577 251.993C184.709 251.993 184.005 252.438 184.005 252.986C184.005 253.535 184.709 253.98 185.577 253.98Z" fill="black"/>
<path id="Vector_44" d="M215.777 247.622C216.645 247.622 217.349 247.177 217.349 246.628C217.349 246.08 216.645 245.635 215.777 245.635C214.909 245.635 214.205 246.08 214.205 246.628C214.205 247.177 214.909 247.622 215.777 247.622Z" fill="black"/>
</g>
</g>
</svg>
