<svg width="598" height="295" viewBox="0 0 598 295" fill="none" xmlns="http://www.w3.org/2000/svg">
<path d="M335.235 44.2317L288.989 131.462C287.398 133.821 283.574 135.847 278.312 137.12C273.05 138.392 266.754 138.812 260.73 138.294C254.706 137.776 249.417 136.359 245.96 134.337C242.504 132.315 241.145 129.843 242.166 127.434C242.166 127.434 277.668 63.4024 278.889 62.5688V62.5559L261.566 51.8184C261.174 51.5735 261.043 51.2772 261.2 50.9941C261.357 50.7109 261.791 50.4639 262.405 50.3067L263.272 50.0907C263.89 49.936 264.637 49.8839 265.351 49.9457C266.065 50.0076 266.689 50.1784 267.088 50.4211L280.889 58.9537L288.172 40.4935C288.225 40.2035 288.565 39.9336 289.119 39.7426C289.672 39.5516 290.394 39.4552 291.126 39.4742L292.151 39.5001C292.884 39.5206 293.566 39.6552 294.05 39.8745C294.533 40.0939 294.777 40.3801 294.729 40.6706L293.47 50.3887L299.466 50.8206L305.941 40.8671C306.098 40.585 306.53 40.3387 307.142 40.1818C307.754 40.0249 308.498 39.9701 309.212 40.0292L310.22 40.1156C310.933 40.1777 311.554 40.3486 311.95 40.5912C312.346 40.8338 312.485 41.1285 312.335 41.4113L306.835 51.4512L312.957 51.976L318.457 41.9383C318.614 41.6561 319.045 41.4099 319.657 41.253C320.27 41.0961 321.013 41.0412 321.727 41.1003L322.736 41.1867C323.448 41.2489 324.069 41.4198 324.465 41.6624C324.861 41.905 325 42.1997 324.851 42.4825L319.356 52.5202L323.717 52.896L328.781 43.6573C328.938 43.3751 329.369 43.1289 329.981 42.972C330.594 42.8151 331.337 42.7603 332.051 42.8194L333.06 42.9057C333.426 42.9336 333.774 42.9904 334.083 43.0728C334.392 43.1552 334.656 43.2615 334.859 43.3854C335.062 43.5092 335.2 43.648 335.265 43.7934C335.329 43.9388 335.319 44.0879 335.235 44.2317V44.2317Z" stroke="black" stroke-linecap="square" stroke-linejoin="round"/>
<path d="M365.531 223.558L376.689 236.399L394.366 233.986L398.552 230.587L406.472 232.118L471.79 223.212L412.675 217.129L365.531 223.558Z" fill="black"/>
<path d="M386.745 164.521L432.042 216.664L358.379 226.717L313.082 174.574L218.302 187.488C213.462 188.154 208.338 188.434 203.223 188.314C198.109 188.193 193.105 187.674 188.498 186.786C183.89 185.898 179.77 184.659 176.374 183.14C172.977 181.62 170.37 179.85 168.703 177.93C167.036 176.011 166.34 173.98 166.657 171.954C166.974 169.928 168.296 167.947 170.549 166.124C172.801 164.301 175.939 162.671 179.783 161.33C183.627 159.988 188.102 158.959 192.95 158.303L287.73 145.38C307.267 142.718 328.673 143.238 347.241 146.828C365.809 150.417 380.019 156.781 386.745 164.521Z" fill="#6935FF"/>
<path d="M68.5778 233.263L35.5455 236.889L40.533 244.026L48.8456 245.892L44.5012 248.931L62.947 275.304L81.8888 252.3L68.5778 233.263Z" fill="black"/>
<path d="M216.013 245.264L81.8779 259.988L61.0773 230.244L195.213 215.52L168.449 177.247C167.058 175.291 166.655 173.246 167.265 171.228C167.875 169.21 169.484 167.26 172.002 165.489C174.519 163.718 177.894 162.162 181.934 160.909C185.973 159.657 190.597 158.733 195.54 158.19C200.484 157.647 205.649 157.497 210.739 157.747C215.83 157.998 220.745 158.644 225.204 159.649C229.662 160.654 233.576 161.998 236.719 163.604C239.863 165.21 242.176 167.046 243.524 169.006L270.287 207.281C275.802 215.169 273.183 223.603 263.004 230.726C252.826 237.85 235.923 243.08 216.013 245.266V245.264Z" fill="#6935FF"/>
<path d="M214.972 116.593C225.873 116.593 234.71 113.092 234.71 108.773C234.71 104.454 225.873 100.953 214.972 100.953C204.071 100.953 195.234 104.454 195.234 108.773C195.234 113.092 204.071 116.593 214.972 116.593Z" fill="#FFB942"/>
<path d="M296.872 142.292L151.764 148.123C151.899 140.96 158.706 134.069 170.878 128.773C183.05 123.477 199.73 120.148 217.717 119.425C235.705 118.702 253.732 120.636 268.341 124.857C282.949 129.077 293.109 135.286 296.872 142.292Z" fill="#FF026C"/>
<path d="M288.717 57.3726V57.3852V57.3663V57.3726Z" stroke="black" stroke-linecap="square" stroke-linejoin="round"/>
<path d="M72.0554 54.6301L150.717 138.144C151.811 139.322 153.484 140.402 155.64 141.323C157.795 142.243 160.39 142.985 163.274 143.505C166.159 144.025 169.274 144.313 172.442 144.353C175.609 144.393 178.765 144.183 181.726 143.737C184.688 143.29 187.396 142.615 189.694 141.75C191.992 140.886 193.835 139.849 195.115 138.701C196.395 137.553 197.088 136.315 197.152 135.06C197.216 133.804 196.652 132.557 195.491 131.388C195.491 131.388 136.196 70.1792 134.691 69.4276V69.4168L147.774 57.7788C147.924 57.6474 148.008 57.5055 148.019 57.3613C148.031 57.217 147.971 57.0733 147.842 56.9383C147.714 56.8033 147.519 56.6797 147.27 56.5745C147.02 56.4693 146.721 56.3847 146.389 56.3254L145.446 56.1591C144.776 56.041 144.015 56.0328 143.329 56.1364C142.644 56.24 142.09 56.447 141.789 56.712L131.366 65.9658L117.194 48.1449C117.031 47.8613 116.592 47.6147 115.972 47.459C115.352 47.3032 114.602 47.2509 113.885 47.3134L112.883 47.3998C112.165 47.4633 111.54 47.637 111.146 47.8828C110.751 48.1286 110.619 48.4263 110.778 48.7107L115.684 58.2496L109.917 59.0335L99.7568 49.5745C99.4944 49.3033 98.9711 49.0843 98.3018 48.9657C97.6325 48.8471 96.8718 48.8385 96.1865 48.9418L95.2216 49.0865C94.536 49.19 93.9821 49.3971 93.6816 49.6624C93.3811 49.9276 93.3587 50.2292 93.6191 50.501L102.853 60.1025L96.9932 60.9836L87.7703 51.3864C87.5078 51.1146 86.984 50.8951 86.3137 50.7761C85.6434 50.6571 84.8813 50.6482 84.1945 50.7515L83.2297 50.8962C82.5447 51.0006 81.9919 51.2083 81.6926 51.4738C81.3933 51.7394 81.3717 52.0411 81.6326 52.3129L90.8555 61.9123L86.6747 62.5429L78.1822 53.708C77.9186 53.4365 77.3946 53.2174 76.7247 53.0985C76.0548 52.9795 75.2933 52.9704 74.6064 53.0731L73.6416 53.2199C72.9616 53.3247 72.4135 53.5317 72.1164 53.7958C71.8194 54.0598 71.7975 54.3597 72.0554 54.6301V54.6301Z" stroke="black" stroke-linecap="square" stroke-linejoin="round"/>
<path d="M100.22 278.979H562.455" stroke="black" stroke-linecap="square" stroke-linejoin="round"/>
<path d="M453.36 78.9981L427.807 68.0347L393.56 80.5642L419.113 91.5276L453.36 78.9981Z" fill="#02B1FF"/>
<path d="M526.566 127.562L511.761 122.264V110.851H479.857L474.695 109.019L478.849 107.251C479.802 106.845 480.544 106.368 481.032 105.849C481.521 105.329 481.746 104.777 481.695 104.222C481.645 103.668 481.319 103.124 480.737 102.619C480.155 102.115 479.328 101.661 478.304 101.284L456.397 93.209C454.326 92.4462 451.576 92.0405 448.751 92.081C445.925 92.1214 443.256 92.6049 441.33 93.4249L426.891 99.5754C425.938 99.9814 425.196 100.458 424.707 100.977C424.219 101.497 423.994 102.05 424.044 102.604C424.095 103.158 424.421 103.702 425.002 104.207C425.584 104.711 426.411 105.165 427.436 105.542L449.343 113.617C451.414 114.38 454.164 114.786 456.989 114.745C459.815 114.705 462.484 114.221 464.409 113.401L469.62 111.181L478.511 114.345V127.272H491.048V278.763H497.044V127.272H511.761V126.24L521.573 129.751L526.566 127.562Z" fill="black"/>
<path d="M223.143 93.9022C225.186 92.4586 226.219 90.8248 226.133 89.17C226.048 87.5152 224.847 85.8995 222.656 84.4902C220.465 83.081 217.364 81.9293 213.672 81.1544C209.981 80.3795 205.833 80.0097 201.66 80.083C197.486 80.1564 193.438 80.6704 189.934 81.5718C186.431 82.4732 183.599 83.7292 181.732 85.2099C179.864 86.6905 179.03 88.342 179.315 89.9933C179.6 91.6445 180.993 93.2357 183.352 94.6019C180.158 95.4079 177.549 96.5295 175.782 97.8563C174.015 99.1831 173.15 100.669 173.273 102.169C173.397 103.668 174.503 105.129 176.484 106.407C178.466 107.686 181.253 108.738 184.572 109.46C187.891 110.182 191.628 110.549 195.414 110.525C199.2 110.501 202.905 110.087 206.164 109.323C209.423 108.56 212.124 107.473 214.001 106.17C215.879 104.867 216.867 103.393 216.869 101.893C216.869 101.871 216.869 101.847 216.869 101.826C218.278 102.194 219.884 102.427 221.56 102.508C223.236 102.588 224.936 102.513 226.526 102.289C228.116 102.065 229.553 101.698 230.724 101.216C231.895 100.734 232.767 100.151 233.273 99.5129C233.778 98.8748 233.902 98.1989 233.636 97.5385C233.37 96.878 232.72 96.2512 231.738 95.7072C230.756 95.1633 229.468 94.7171 227.977 94.4039C226.485 94.0906 224.83 93.9189 223.143 93.9022Z" fill="black"/>
<path d="M374.944 115.93C374.944 115.93 390.975 115.632 398.318 105.311C398.318 105.311 410.255 115.697 426.286 115.399C426.286 115.399 400.073 120.128 401.997 127.307C402.003 127.305 392.387 118.573 374.944 115.93Z" stroke="black" stroke-linejoin="bevel"/>
<path d="M354.482 137.796C354.482 137.796 364.369 137.612 368.905 131.244C368.905 131.244 376.269 137.653 386.162 137.468C386.162 137.468 369.984 140.387 371.172 144.81C371.172 144.817 365.247 139.429 354.482 137.796Z" stroke="black" stroke-linejoin="bevel"/>
<path d="M35.8998 97.1416C35.8998 97.1416 51.9308 96.8436 59.2732 86.5229C59.2732 86.5229 71.2106 96.9084 87.2416 96.6103C87.2416 96.6103 61.0284 101.34 62.9525 108.518C62.958 108.516 53.3426 99.7849 35.8998 97.1416Z" stroke="black" stroke-linejoin="bevel"/>
<path d="M83.0281 123.111C83.0281 123.111 92.916 122.927 97.4512 116.558C97.4512 116.558 104.815 122.968 114.709 122.782C114.709 122.782 98.5304 125.702 99.7187 130.125C99.7187 130.131 93.7936 124.743 83.0281 123.111Z" stroke="black" stroke-linejoin="bevel"/>
<path d="M221.775 118.953C221.775 118.953 230.332 121.346 230.997 126.898C231.025 127.114 231.041 127.354 231.041 127.592L256.66 125.432C256.66 125.432 242.488 116.146 221.775 118.953Z" fill="black"/>
<path d="M310.624 139.47C310.631 134.827 306.534 130.329 299.044 126.759C291.554 123.188 281.144 120.769 269.622 119.922C258.1 119.075 246.193 119.854 235.969 122.123C225.745 124.392 217.849 128.008 213.653 132.343C210.559 132.199 207.447 132.127 204.332 132.127C188.209 132.133 172.483 134.107 159.295 137.781C146.106 141.455 136.096 146.651 130.629 152.66C125.161 158.669 124.5 165.199 128.737 171.362C132.975 177.526 141.903 183.021 154.308 187.102C166.712 191.182 181.989 193.649 198.059 194.165C214.129 194.682 230.21 193.224 244.112 189.989C258.015 186.755 269.064 181.901 275.754 176.09C282.444 170.278 284.45 163.791 281.5 157.511C290.197 155.92 297.561 153.375 302.722 150.178C307.884 146.981 310.626 143.265 310.624 139.47Z" fill="#02B1FF"/>
<path d="M168.123 158.95L162.31 160.909L196.917 177.031L202.73 175.072L168.123 158.95Z" fill="black"/>
<path d="M413.755 89.2158L398.966 82.8688L269.039 130.399C263.284 129.422 256.855 129.259 250.834 129.939C244.812 130.618 239.564 132.099 235.973 134.131C232.382 136.163 230.667 138.623 231.116 141.098C231.565 143.572 234.151 145.91 238.438 147.718C242.726 149.526 248.454 150.693 254.659 151.025C260.865 151.356 267.169 150.831 272.512 149.537C277.854 148.244 281.91 146.261 283.997 143.922C286.083 141.583 286.074 139.031 283.969 136.694L413.755 89.2158Z" fill="black"/>
<path d="M174.897 165.169L393.477 88.2874" stroke="black" stroke-linecap="square" stroke-linejoin="round"/>
<path d="M177.078 167.76L395.658 90.8789" stroke="black" stroke-linecap="square" stroke-linejoin="round"/>
<path d="M183.619 168.84L402.199 91.9587" stroke="black" stroke-linecap="square" stroke-linejoin="round"/>
<path d="M336.063 244.441C337.448 244.441 338.571 243.996 338.571 243.447C338.571 242.899 337.448 242.454 336.063 242.454C334.679 242.454 333.556 242.899 333.556 243.447C333.556 243.996 334.679 244.441 336.063 244.441Z" fill="black"/>
<path d="M336.063 250.801C337.448 250.801 338.571 250.356 338.571 249.807C338.571 249.259 337.448 248.814 336.063 248.814C334.679 248.814 333.556 249.259 333.556 249.807C333.556 250.356 334.679 250.801 336.063 250.801Z" fill="black"/>
<path d="M320.01 250.801C321.395 250.801 322.518 250.356 322.518 249.807C322.518 249.259 321.395 248.814 320.01 248.814C318.626 248.814 317.503 249.259 317.503 249.807C317.503 250.356 318.626 250.801 320.01 250.801Z" fill="black"/>
<path d="M303.963 250.801C305.348 250.801 306.471 250.356 306.471 249.807C306.471 249.259 305.348 248.814 303.963 248.814C302.578 248.814 301.456 249.259 301.456 249.807C301.456 250.356 302.578 250.801 303.963 250.801Z" fill="black"/>
<path d="M287.91 250.801C289.295 250.801 290.418 250.356 290.418 249.807C290.418 249.259 289.295 248.814 287.91 248.814C286.525 248.814 285.403 249.259 285.403 249.807C285.403 250.356 286.525 250.801 287.91 250.801Z" fill="black"/>
<path d="M328.039 247.622C329.424 247.622 330.547 247.177 330.547 246.628C330.547 246.08 329.424 245.635 328.039 245.635C326.655 245.635 325.532 246.08 325.532 246.628C325.532 247.177 326.655 247.622 328.039 247.622Z" fill="black"/>
<path d="M311.987 247.622C313.372 247.622 314.494 247.177 314.494 246.628C314.494 246.08 313.372 245.635 311.987 245.635C310.602 245.635 309.479 246.08 309.479 246.628C309.479 247.177 310.602 247.622 311.987 247.622Z" fill="black"/>
<path d="M295.934 247.622C297.319 247.622 298.441 247.177 298.441 246.628C298.441 246.08 297.319 245.635 295.934 245.635C294.549 245.635 293.426 246.08 293.426 246.628C293.426 247.177 294.549 247.622 295.934 247.622Z" fill="black"/>
<path d="M279.881 247.622C281.266 247.622 282.389 247.177 282.389 246.628C282.389 246.08 281.266 245.635 279.881 245.635C278.496 245.635 277.374 246.08 277.374 246.628C277.374 247.177 278.496 247.622 279.881 247.622Z" fill="black"/>
<path d="M320.01 244.441C321.395 244.441 322.518 243.996 322.518 243.447C322.518 242.899 321.395 242.454 320.01 242.454C318.626 242.454 317.503 242.899 317.503 243.447C317.503 243.996 318.626 244.441 320.01 244.441Z" fill="black"/>
<path d="M303.963 244.441C305.348 244.441 306.471 243.996 306.471 243.447C306.471 242.899 305.348 242.454 303.963 242.454C302.578 242.454 301.456 242.899 301.456 243.447C301.456 243.996 302.578 244.441 303.963 244.441Z" fill="black"/>
<path d="M287.91 244.441C289.295 244.441 290.418 243.996 290.418 243.447C290.418 242.899 289.295 242.454 287.91 242.454C286.525 242.454 285.403 242.899 285.403 243.447C285.403 243.996 286.525 244.441 287.91 244.441Z" fill="black"/>
<path d="M328.039 241.262C329.424 241.262 330.547 240.817 330.547 240.269C330.547 239.72 329.424 239.275 328.039 239.275C326.655 239.275 325.532 239.72 325.532 240.269C325.532 240.817 326.655 241.262 328.039 241.262Z" fill="black"/>
<path d="M311.987 241.262C313.372 241.262 314.494 240.817 314.494 240.269C314.494 239.72 313.372 239.275 311.987 239.275C310.602 239.275 309.479 239.72 309.479 240.269C309.479 240.817 310.602 241.262 311.987 241.262Z" fill="black"/>
<path d="M295.934 241.262C297.319 241.262 298.441 240.817 298.441 240.269C298.441 239.72 297.319 239.275 295.934 239.275C294.549 239.275 293.426 239.72 293.426 240.269C293.426 240.817 294.549 241.262 295.934 241.262Z" fill="black"/>
<path d="M303.963 257.161C305.348 257.161 306.471 256.716 306.471 256.167C306.471 255.619 305.348 255.174 303.963 255.174C302.578 255.174 301.456 255.619 301.456 256.167C301.456 256.716 302.578 257.161 303.963 257.161Z" fill="black"/>
<path d="M328.039 253.98C329.424 253.98 330.547 253.535 330.547 252.986C330.547 252.438 329.424 251.993 328.039 251.993C326.655 251.993 325.532 252.438 325.532 252.986C325.532 253.535 326.655 253.98 328.039 253.98Z" fill="black"/>
<path d="M311.987 253.98C313.372 253.98 314.494 253.535 314.494 252.986C314.494 252.438 313.372 251.993 311.987 251.993C310.602 251.993 309.479 252.438 309.479 252.986C309.479 253.535 310.602 253.98 311.987 253.98Z" fill="black"/>
<path d="M295.934 253.98C297.319 253.98 298.441 253.535 298.441 252.986C298.441 252.438 297.319 251.993 295.934 251.993C294.549 251.993 293.426 252.438 293.426 252.986C293.426 253.535 294.549 253.98 295.934 253.98Z" fill="black"/>
<path d="M344.092 247.622C345.477 247.622 346.6 247.177 346.6 246.628C346.6 246.08 345.477 245.635 344.092 245.635C342.708 245.635 341.585 246.08 341.585 246.628C341.585 247.177 342.708 247.622 344.092 247.622Z" fill="black"/>
</svg>
