<svg width="487" height="283" viewBox="0 0 487 283" fill="none" xmlns="http://www.w3.org/2000/svg">
<g clip-path="url(#clip0_5_4719)">
<path d="M103.341 66.6448L121.759 89.5701C121.759 89.5701 137.462 95.5911 155.816 107.68L151.422 113.934C151.422 113.934 121.129 102.623 113.377 97.8442L99.221 77.6087L103.341 66.6448Z" fill="#A0616A"/>
<path d="M166.829 118.784C168.587 116.439 166.5 112.349 162.168 109.65C157.836 106.951 152.899 106.664 151.141 109.009C149.383 111.355 151.47 115.444 155.802 118.143C160.135 120.843 165.071 121.13 166.829 118.784Z" fill="#A0616A"/>
<path d="M94.3382 47.0738L100.366 45.5149C100.366 45.5149 103.874 45.521 105.854 48.6633C107.833 51.8056 121.848 79.8232 121.184 80.9086C120.52 81.9939 119.592 82.2338 120.783 82.8395C121.973 83.4452 123.063 83.1381 122.251 84.0457C121.44 84.9533 122.561 86.9472 122.561 86.9472L107.1 97.3488L94.3382 47.0738Z" fill="#6C63FF"/>
<path d="M70.9529 277.457L78.3064 277.457L81.8046 251.594L70.9514 251.595L70.9529 277.457Z" fill="#A0616A"/>
<path d="M96.1471 277.305C96.3761 277.657 96.4969 278.792 96.4969 279.2C96.4969 280.457 95.3795 281.476 94.0011 281.476H71.228C70.2876 281.476 69.5253 280.781 69.5253 279.924V279.059C69.5253 279.059 68.3987 276.461 70.7182 273.258C70.7182 273.258 73.6009 275.766 77.9084 271.838L79.1786 269.74L88.3734 275.872L93.47 276.444C94.585 276.569 95.5736 276.424 96.1471 277.305Z" fill="#2F2E41"/>
<path d="M97.5679 270.923L104.82 272.033L112.969 247.056L102.266 245.417L97.5679 270.923Z" fill="#A0616A"/>
<path d="M122.442 274.579C122.603 274.96 122.516 276.098 122.442 276.501C122.214 277.74 120.927 278.576 119.567 278.368L97.1089 274.928C96.1815 274.786 95.5561 273.985 95.7119 273.14L95.869 272.287C95.869 272.287 95.2301 269.554 98.0994 266.747C98.0994 266.747 100.487 269.655 105.448 266.432L107.082 264.555L115.036 271.991L119.958 273.325C121.035 273.617 122.036 273.624 122.442 274.579Z" fill="#2F2E41"/>
<path d="M112.642 138.217C112.642 138.217 122.522 148.764 122.522 158.432C122.522 168.1 122.763 198.47 122.763 198.47C122.763 198.47 116.98 245.881 115.534 249.836C114.088 253.791 113.365 260.383 113.365 260.383L99.3886 257.307C99.3886 257.307 97.4608 212.703 103.244 202.156L89.2677 166.122L84.4482 268.073H68.2232C68.2232 268.073 59.8689 214.461 64.2064 200.399C64.2064 200.399 54.5674 146.786 56.9772 143.71C59.3869 140.634 112.642 138.217 112.642 138.217Z" fill="#2F2E41"/>
<path d="M76.737 33.19L89.7496 34.0688L94.0872 40.6605C94.0872 40.6605 104.208 44.6155 105.654 50.3283C107.1 56.0411 107.582 122.837 107.582 122.837L114.811 132.504L114.329 140.854L56.4952 143.491V135.463L51.1938 125.913C51.1938 125.913 56.9772 49.4494 58.423 49.0099C59.8689 48.5705 70.9537 41.5394 70.9537 41.5394L76.737 33.19Z" fill="#6C63FF"/>
<path d="M82.6264 31.5546C91.6762 31.5546 99.0126 24.8652 99.0126 16.6135C99.0126 8.36173 91.6762 1.67236 82.6264 1.67236C73.5765 1.67236 66.2401 8.36173 66.2401 16.6135C66.2401 24.8652 73.5765 31.5546 82.6264 31.5546Z" fill="#A0616A"/>
<path d="M95.7151 4.59593C94.8813 2.43971 92.5682 1.13158 90.0613 1.18254C89.955 1.18467 89.8489 1.18377 89.7437 1.17984C88.4813 1.13277 87.2695 0.739606 86.0316 0.508958C83.7245 0.0790491 81.2918 0.222982 79.0649 0.921117C78.3727 1.13813 77.6797 1.41103 76.9477 1.4111C76.2158 1.41119 75.4185 1.04523 75.24 0.398011C75.1976 0.983991 75.1553 1.56994 75.1131 2.15589C74.8748 1.68163 74.6367 1.20735 74.3985 0.733067L73.9215 2.62445L72.3932 1.04374C72.5299 1.74046 72.0844 2.44267 71.4813 2.88812C70.8781 3.33359 70.1331 3.57999 69.419 3.85752C66.337 5.05538 63.4432 7.1762 62.5551 10.1218C61.994 11.9828 62.2875 13.958 62.5849 15.8689C62.8476 17.5582 63.1334 19.3059 64.1404 20.7439C64.786 21.6658 65.7165 22.4415 66.1096 23.4749C66.476 24.4381 66.3372 25.541 66.8585 26.4429C67.382 27.3489 68.4627 27.8615 69.5204 28.2057C70.5781 28.5501 71.7024 28.7936 72.6133 29.3926C73.5241 29.9918 74.5812 31.7176 76.5657 31.6247L77.2062 30.5275C77.8651 30.038 75.4267 30.4261 75.4013 29.6515C75.3758 28.8769 78.3352 28.3983 77.9158 27.7243C77.2726 26.6907 76.4024 25.7912 75.6775 24.8034C74.8299 23.6483 74.1633 22.2986 74.4558 20.8887C74.5695 20.3403 74.851 19.8222 75.2799 19.4238C76.516 18.2754 77.8943 18.7802 79.2337 18.9444C80.1569 19.0578 81.2596 18.9269 81.739 18.1986C82.2998 17.3465 81.6747 16.2625 81.7512 15.2712C81.8322 14.2208 82.705 13.3595 83.6548 12.7606C84.6047 12.1618 85.6832 11.7255 86.5377 11.0172C87.3921 10.3089 88.0008 9.20236 87.6283 8.20569C91.6787 6.6681 92.2988 6.52268 96.564 7.46035C96.3607 6.4878 96.0761 5.52957 95.7151 4.59593Z" fill="#2F2E41"/>
<path d="M26.5378 195.691V150.34C26.5378 149.096 27.1193 147.906 28.1332 147.073C29.147 146.241 30.5063 145.839 31.8633 145.969C44.4332 144.427 56.272 145.161 67.0012 149.348C68.2165 149.348 69.2053 150.249 69.2053 151.357V196.867C69.2053 197.975 68.2165 198.877 67.0012 198.877C55.1908 196.351 42.734 197.009 30.0313 198.877C28.105 198.877 26.5378 197.448 26.5378 195.691Z" fill="#E6E6E6"/>
<path d="M26.5378 199.729V153.898C26.5378 151.474 28.7001 149.503 31.3579 149.503C43.3778 146.635 55.2592 146.63 67.0012 149.503C68.2166 149.503 69.2053 150.404 69.2053 151.513V196.557C69.2053 197.663 68.2195 198.564 67.0067 198.566C55.4287 196.73 43.0265 198.518 30.0313 202.914C28.105 202.914 26.5378 201.485 26.5378 199.729Z" fill="#F2F2F2"/>
<path d="M54.2936 168.443H43.054C39.0174 168.443 35.7334 165.448 35.7334 161.768C35.7334 158.087 39.0174 155.093 43.054 155.093H54.2936C58.3306 155.093 61.6146 158.087 61.6146 161.768C61.6146 165.448 58.3306 168.443 54.2936 168.443Z" fill="#E6E6E6"/>
<path d="M64.595 78.4255L64.1653 102.087C64.1653 102.087 62.7922 120.527 59.3823 141.28L51.2542 141.752C51.2542 141.752 52.2542 109.351 51.8899 100.824L52.4647 81.8876L64.595 78.4255Z" fill="#A0616A"/>
<path d="M56.0861 155.946C59.1997 155.85 61.5793 151.895 61.4011 147.114C61.2228 142.332 58.5542 138.534 55.4406 138.631C52.327 138.727 49.9474 142.682 50.1256 147.463C50.3039 152.245 52.9724 156.043 56.0861 155.946Z" fill="#A0616A"/>
<path d="M64.4687 48.3018L58.2075 48.5097C58.2075 48.5097 54.8712 49.4999 54.0482 53.0452C53.2253 56.5904 47.4568 93.28 48.4551 94.1263C49.4535 94.9727 50.4167 94.9407 49.4886 95.851C48.5604 96.7613 47.4198 96.7749 48.498 97.4108C49.5763 98.0467 49.1823 100.258 49.1823 100.258L66.4993 99.1398L64.4687 48.3018Z" fill="#6C63FF"/>
<path d="M477.566 259.701H310.977C310.01 259.701 309.053 259.566 308.132 259.301L308.034 259.265C255.871 235.627 211.147 222.726 171.309 219.824L171.157 219.796C167.216 218.659 164.568 215.363 164.568 211.595V8.60947C164.568 5.83777 165.975 3.30848 168.427 1.67049C170.88 0.0324961 173.948 -0.427126 176.848 0.407967L308.543 38.3901C309.332 38.6177 310.151 38.7328 310.977 38.7328H477.566C482.768 38.7328 487 42.5917 487 47.3347V251.099C487 255.842 482.768 259.701 477.566 259.701ZM308.592 258.129C309.365 258.346 310.167 258.457 310.977 258.457H477.566C482.016 258.457 485.635 255.156 485.635 251.099V47.3347C485.635 43.2777 482.016 39.9771 477.566 39.9771H310.977C310.011 39.9771 309.054 39.8425 308.132 39.5767L176.436 1.59454C173.956 0.878832 171.331 1.27314 169.234 2.67418C167.136 4.07553 165.933 6.23876 165.933 8.60947V211.595C165.933 214.795 168.165 217.597 171.497 218.589C211.48 221.515 256.326 234.449 308.592 258.129Z" fill="#3F3D56"/>
<path d="M315.425 250.483C360.847 235.828 411.52 237.51 465.352 249.022C472.11 250.467 478.589 245.827 478.589 239.498V54.028C478.589 49.5241 475.222 45.5861 470.424 44.5162C413.635 31.854 360.592 29.5243 313.846 44.5707C310.421 45.673 306.62 45.0758 303.73 43.07C264.339 15.7291 224.025 2.02062 182.507 6.09101C177.076 6.6235 172.979 10.844 172.979 15.8249V203.318C172.979 208.338 177.145 212.536 182.621 213.055C227.309 217.293 268.372 230.136 306.561 249.805C309.265 251.197 312.497 251.428 315.425 250.483Z" fill="#F2F2F2"/>
<path d="M313.966 240.083C310.873 240.083 307.826 239.308 305.141 237.787C273.069 219.626 238.127 209.016 201.287 206.252C192.65 205.604 185.884 198.887 185.884 190.959V30.8099C185.884 22.5902 192.875 15.855 201.801 15.4768C228.623 14.3364 261.191 25.2431 304.288 49.7884C307.934 51.8641 312.367 52.4805 316.452 51.4816C357.41 41.4568 401.808 41.164 452.186 50.5864C460.007 52.0494 465.684 58.379 465.684 65.6373V221.958C465.684 226.675 463.357 231.057 459.3 233.979C455.213 236.922 449.954 237.978 444.871 236.874C397.214 226.532 356.291 227.279 319.761 239.161C317.864 239.778 315.906 240.083 313.966 240.083ZM205.63 16.6409C204.36 16.6409 203.108 16.667 201.864 16.7199C193.669 17.0671 187.249 23.256 187.249 30.8099V190.959C187.249 198.244 193.464 204.417 201.399 205.012C238.457 207.792 273.603 218.463 305.861 236.73C309.875 239.004 314.774 239.462 319.303 237.989C356.087 226.024 397.265 225.263 445.187 235.664C449.861 236.678 454.696 235.709 458.454 233.002C462.182 230.317 464.32 226.292 464.32 221.958V65.6373C464.32 58.9671 459.102 53.15 451.912 51.8052C401.747 42.4219 357.554 42.7093 316.805 52.6834C312.355 53.7715 307.531 53.1017 303.565 50.8437C262.723 27.5828 231.447 16.6409 205.63 16.6409Z" fill="white"/>
<path d="M310.868 52.4109L309.503 52.4224L311.402 239.798L312.767 239.787L310.868 52.4109Z" fill="white"/>
<path d="M199.188 40.0455L198.759 41.2266L294.306 70.0533L294.735 68.8723L199.188 40.0455Z" fill="#3F3D56"/>
<path d="M199.188 63.107L198.759 64.2881L294.306 93.1149L294.735 91.9338L199.188 63.107Z" fill="#3F3D56"/>
<path d="M199.188 86.1683L198.759 87.3494L294.306 116.176L294.735 114.995L199.188 86.1683Z" fill="#3F3D56"/>
<path d="M199.188 109.23L198.759 110.411L294.306 139.237L294.735 138.056L199.188 109.23Z" fill="#3F3D56"/>
<path d="M448.38 70.1221H333.864V71.3664H448.38V70.1221Z" fill="#3F3D56"/>
<path d="M448.38 91.9023H333.864V93.1466H448.38V91.9023Z" fill="#3F3D56"/>
<path d="M448.38 113.682H333.864V114.926H448.38V113.682Z" fill="#3F3D56"/>
<path d="M448.38 135.463H333.864V136.707H448.38V135.463Z" fill="#3F3D56"/>
<path d="M448.38 157.243H333.864V158.487H448.38V157.243Z" fill="#3F3D56"/>
<path d="M448.38 179.023H333.864V180.267H448.38V179.023Z" fill="#3F3D56"/>
<path d="M37.0219 272.216C35.6123 272.297 34.8332 270.7 35.8997 269.769L36.0058 269.385C35.9918 269.354 35.9778 269.323 35.9636 269.292C34.5381 266.193 29.7068 266.214 28.2934 269.318C27.0389 272.073 25.4417 274.833 25.0484 277.746C24.8721 279.032 24.9515 280.342 25.2644 281.603C22.3249 275.749 20.778 269.355 20.778 262.926C20.778 261.311 20.875 259.695 21.0733 258.084C21.2364 256.766 21.4611 255.456 21.752 254.158C23.3253 247.142 26.7319 240.459 31.6457 234.878C34.0079 233.701 35.9778 231.86 37.1677 229.654C37.5952 228.858 37.9301 228.003 38.0888 227.131C37.82 227.163 37.0751 223.43 37.2779 223.201C36.9033 222.682 36.2327 222.425 35.8236 221.919C33.7887 219.403 30.9851 219.842 29.5215 223.261C26.395 224.7 26.3647 227.086 28.2832 229.381C29.5037 230.841 29.6714 232.817 30.7423 234.38C30.6321 234.508 30.5175 234.633 30.4073 234.761C28.387 237.124 26.6395 239.664 25.1664 242.332C25.5827 239.367 24.9681 235.794 23.9202 233.492C22.7274 230.868 20.4916 228.658 18.5228 226.39C16.1578 223.665 11.3084 224.854 10.8917 228.308C10.8877 228.342 10.8837 228.375 10.8799 228.408C11.1723 228.559 11.4588 228.719 11.7387 228.887C13.335 229.85 12.7833 232.106 10.8919 232.373L10.8491 232.379C10.9548 233.339 11.1355 234.291 11.3999 235.228C8.87411 244.134 14.3271 247.378 22.1133 247.524C22.2852 247.604 22.4527 247.684 22.6246 247.761C21.8357 249.786 21.2055 251.864 20.7384 253.969C20.3197 255.83 20.0288 257.71 19.8658 259.599C19.663 261.982 19.6807 264.377 19.9011 266.756L19.8878 266.671C19.3282 264.051 17.7681 261.604 15.5028 259.908C12.1283 257.381 7.36084 256.45 3.72036 254.418C1.96794 253.44 -0.277653 254.704 0.0281896 256.557L0.0430778 256.645C0.585133 256.846 1.11396 257.079 1.62518 257.341C1.91762 257.491 2.20411 257.651 2.48397 257.82C4.08025 258.782 3.52858 261.038 1.63717 261.305L1.5943 261.311C1.56346 261.315 1.53701 261.319 1.50621 261.323C2.43609 263.336 3.73172 265.204 5.35349 266.816C6.93281 274.591 13.716 275.329 20.9719 273.064H20.9764C21.7696 276.215 22.9287 279.293 24.4182 282.226H36.7138C36.7579 282.102 36.7975 281.973 36.8372 281.848C35.7002 281.913 34.5544 281.853 33.435 281.664C34.3472 280.643 35.2594 279.614 36.1717 278.594C36.1937 278.574 36.2114 278.553 36.229 278.533C36.6917 278.011 37.1589 277.493 37.6216 276.97L37.6219 276.97C37.6508 275.366 37.4396 273.767 37.0219 272.216Z" fill="#F2F2F2"/>
<path d="M174.544 282.26C174.544 282.67 174.183 283 173.732 283H0.907602C0.457292 283 0.0956421 282.67 0.0956421 282.26C0.0956421 281.849 0.457292 281.519 0.907602 281.519H173.732C174.183 281.519 174.544 281.849 174.544 282.26Z" fill="#CCCCCC"/>
<path d="M453.19 242.903C461.857 242.903 468.883 236.497 468.883 228.594C468.883 220.691 461.857 214.284 453.19 214.284C444.522 214.284 437.496 220.691 437.496 228.594C437.496 236.497 444.522 242.903 453.19 242.903Z" fill="#6C63FF"/>
<path d="M460.539 228.055L450.801 222.928C450.347 222.689 449.778 222.988 449.778 223.467V227.971H446.857C446.48 227.971 446.175 228.25 446.175 228.594C446.175 228.937 446.48 229.216 446.857 229.216H449.778V233.72C449.778 234.199 450.347 234.499 450.801 234.259L460.539 229.132C460.993 228.893 460.993 228.294 460.539 228.055Z" fill="white"/>
<path d="M229.715 188.258C230.327 181.882 233.23 175.79 237.877 170.996C242.404 166.326 248.591 163.123 255.264 161.818C258.988 161.089 262.847 160.947 266.619 161.438C267.522 161.555 267.498 162.862 266.585 162.744C260.165 161.908 253.53 162.929 247.761 165.632C241.849 168.402 237.116 172.908 234.193 178.342C232.521 181.45 231.478 184.841 231.148 188.289C231.068 189.124 229.635 189.098 229.715 188.258Z" fill="white"/>
<path d="M265.03 156.194L276.058 161.155C276.46 161.336 276.525 161.931 276.185 162.188L265.745 170.057C265.038 170.59 264.044 169.649 264.756 169.112L275.196 161.243L275.322 162.276L264.294 157.315C263.466 156.943 264.209 155.825 265.03 156.194Z" fill="white"/>
</g>
<defs>
<clipPath id="clip0_5_4719">
<rect width="487" height="283" fill="white"/>
</clipPath>
</defs>
</svg>
