<svg width="49" height="49" viewBox="0 0 49 49" fill="none" xmlns="http://www.w3.org/2000/svg">
<path d="M9.03745 41.6515L5.59827 3.0625H43.4018L39.958 41.6454L24.477 45.9375L9.03745 41.6515Z" fill="#1572B6"/>
<path d="M24.5 42.6575L37.0103 39.1893L39.9534 6.21838H24.5V42.6575Z" fill="#33A9DC"/>
<path d="M24.5 20.1988H30.7628L31.1946 15.3524H24.5V10.6193H36.3672L36.2539 11.8887L35.0917 24.9319H24.5V20.1988Z" fill="white"/>
<path d="M24.5291 32.4901L24.5077 32.4962L19.2371 31.0721L18.9003 27.2976H14.1488L14.8118 34.7288L24.5062 37.4207L24.5291 37.4146V32.4901Z" fill="#EBEBEB"/>
<path d="M30.3601 24.7312L29.7904 31.069L24.5122 32.4931V37.4176L34.2142 34.7287L34.2862 33.9294L35.1085 24.7312H30.3601Z" fill="white"/>
<path d="M24.5169 10.6193V15.3524H13.0846L12.9896 14.2881L12.7737 11.8887L12.6604 10.6193H24.5169ZM24.5 20.1988V24.9319H19.2953L19.2004 23.8676L18.986 21.4682L18.8727 20.1988H24.5Z" fill="#EBEBEB"/>
</svg>
