<svg width="49" height="49" viewBox="0 0 49 49" fill="none" xmlns="http://www.w3.org/2000/svg">
<path d="M9.0374 41.6515L5.59668 3.0625H43.4032L39.9579 41.6454L24.477 45.9375L9.0374 41.6515Z" fill="#E44F26"/>
<path d="M24.5 42.6575L37.0103 39.1893L39.9534 6.21838H24.5V42.6575Z" fill="#F1662A"/>
<path d="M24.5 20.5295H18.2372L17.8054 15.683H24.5V10.95H12.6328L12.7461 12.2209L13.9083 25.2625H24.5V20.5295ZM24.5 32.8208L24.4786 32.8269L19.208 31.4044L18.8711 27.6299H14.1197L14.7827 35.0595L24.4786 37.7514L24.5 37.7453V32.8208Z" fill="#EBEBEB"/>
<path d="M24.4832 20.5295V25.2625H30.3111L29.7629 31.4013L24.4832 32.8254V37.7499L34.1867 35.0595L34.2571 34.2602L35.3688 21.8004L35.4852 20.5295H24.4832ZM24.4832 10.95V15.683H35.9155L36.0104 14.6204L36.2263 12.2209L36.3396 10.95H24.4832Z" fill="white"/>
</svg>
