<svg width="49" height="49" viewBox="0 0 49 49" fill="none" xmlns="http://www.w3.org/2000/svg">
<path fill-rule="evenodd" clip-rule="evenodd" d="M24.5 3.0625C28.7399 3.0625 32.8847 4.31979 36.41 6.67537C39.9354 9.03095 42.6831 12.379 44.3057 16.2962C45.9282 20.2134 46.3528 24.5238 45.5256 28.6822C44.6984 32.8407 42.6567 36.6605 39.6586 39.6586C36.6605 42.6567 32.8407 44.6984 28.6822 45.5256C24.5238 46.3528 20.2134 45.9282 16.2962 44.3057C12.379 42.6831 9.03095 39.9354 6.67537 36.41C4.31979 32.8847 3.0625 28.7399 3.0625 24.5C3.0625 18.8144 5.32109 13.3617 9.3414 9.3414C13.3617 5.32109 18.8144 3.0625 24.5 3.0625Z" fill="#CC6699"/>
<path d="M37.9474 12.2378C36.9766 8.43111 30.6632 7.18468 24.6883 9.30086C20.9464 10.5582 17.4892 12.5413 14.5147 15.1365C11.224 18.2143 10.6988 20.894 10.9147 22.0133C11.6803 25.9639 17.0902 28.5456 19.3151 30.4612V30.4719C18.6598 30.795 13.8578 33.2282 12.7308 35.7088C11.5456 38.3303 12.9191 40.2107 13.8302 40.4633C15.1981 40.7927 16.6348 40.6855 17.9387 40.1568C19.2426 39.6282 20.3482 38.7046 21.1006 37.5157C21.7224 36.5524 22.1114 35.4576 22.2368 34.318C22.3623 33.1783 22.2207 32.0251 21.8233 30.9497C22.895 30.6774 24.009 30.6134 25.1048 30.7613C28.8656 31.2008 29.6036 33.5482 29.4627 34.5313C29.3965 34.8812 29.2556 35.2128 29.0498 35.5034C28.844 35.7941 28.578 36.037 28.2699 36.2156C28.0065 36.3795 27.9254 36.4346 27.9483 36.5571C27.9805 36.7332 28.1015 36.7271 28.3266 36.6888C28.8917 36.5108 29.3897 36.1658 29.7549 35.6992C30.12 35.2326 30.3353 34.6663 30.3723 34.075C30.4626 31.7781 28.2561 29.1964 24.3484 29.2622C23.2134 29.2298 22.0809 29.385 20.9965 29.7216C20.9422 29.6596 20.8871 29.5983 20.8311 29.5379C18.4148 26.9608 13.9496 25.1371 14.138 21.6718C14.2069 20.4116 14.6448 17.0949 22.713 13.0708C29.328 9.77402 34.6231 10.6821 35.5387 12.6926C36.8464 15.5652 32.709 20.9016 25.8398 21.6718C25.0806 21.826 24.2964 21.8072 23.5454 21.6168C22.7944 21.4265 22.0959 21.0695 21.5018 20.5724C21.1404 20.1743 21.0868 20.1574 20.9521 20.2309C20.7331 20.3519 20.8724 20.7041 20.9521 20.9123C21.2151 21.3864 21.5701 21.8031 21.9964 22.1381C22.4226 22.4731 22.9114 22.7196 23.4342 22.8631C26.135 23.45 28.952 23.1714 31.4855 22.0669C35.6521 20.4606 38.9014 15.9817 37.9474 12.2378ZM20.24 31.6403C20.5442 32.6887 20.5287 33.804 20.1956 34.8436C20.1599 34.9519 20.1206 35.059 20.0777 35.1652C20.0348 35.2714 19.9884 35.3735 19.9384 35.4715C19.6807 35.9987 19.3469 36.4852 18.9476 36.9154C17.7027 38.2736 15.9617 38.7881 15.216 38.3548C14.4106 37.8878 14.8133 35.9722 16.2572 34.4455C17.3668 33.3484 18.646 32.4373 20.0456 31.7475L20.24 31.6403Z" fill="white"/>
</svg>
