<svg width="49" height="49" viewBox="0 0 49 49" fill="none" xmlns="http://www.w3.org/2000/svg">
<path d="M40.5321 8.72819C38.5245 5.97344 35.5646 4.06331 32.2274 3.36887C28.8902 2.67444 25.414 3.24528 22.4741 4.9705L12.1887 11.3313C10.81 12.1621 9.6225 13.2749 8.70391 14.5967C7.78532 15.9185 7.15642 17.4195 6.85841 19.0013C6.36942 21.6472 6.80176 24.3806 8.08341 26.7464C7.20509 28.038 6.6049 29.498 6.32094 31.0339C6.02864 32.6373 6.06807 34.2836 6.43678 35.8711C6.80549 37.4587 7.49566 38.9538 8.46469 40.2643C10.4724 43.0193 13.4321 44.93 16.7693 45.6256C20.1066 46.3211 23.5832 45.7517 26.5243 44.0281L36.8112 37.6688C38.1894 36.8375 39.3766 35.7245 40.2951 34.4028C41.2137 33.0811 41.8428 31.5804 42.1415 29.9988C42.6335 27.351 42.2011 24.6146 40.9165 22.2476C41.7957 20.9564 42.3965 19.4962 42.6805 17.9601C42.9727 16.3562 42.9328 14.7093 42.5633 13.1214C42.1938 11.5335 41.5025 10.0383 40.5321 8.72819Z" fill="#FF3E00"/>
<path d="M21.4712 40.7925C19.863 41.2049 18.1679 41.1249 16.6057 40.5627C15.0435 40.0006 13.6861 38.9822 12.7094 37.6396C12.1246 36.8525 11.7076 35.9538 11.4842 34.999C11.2608 34.0442 11.2359 33.0537 11.4109 32.0888C11.4691 31.772 11.5505 31.4598 11.6544 31.1548L11.8489 30.5806L12.3756 30.945C13.5984 31.8159 14.9586 32.4753 16.3997 32.8958L16.7749 33.0076L16.7366 33.3705C16.6925 33.8984 16.8398 34.4245 17.1516 34.8527C17.4446 35.2672 17.8571 35.5825 18.334 35.7565C18.8108 35.9305 19.3294 35.955 19.8205 35.8266C20.0424 35.769 20.2545 35.6786 20.4499 35.5587L30.7093 29.1978C30.9591 29.0464 31.1744 28.8443 31.3413 28.6045C31.5083 28.3648 31.6231 28.0928 31.6785 27.8059C31.7337 27.5167 31.729 27.2193 31.6648 26.9319C31.6005 26.6446 31.478 26.3735 31.3049 26.1353C31.0103 25.7303 30.6009 25.423 30.1297 25.2532C29.6585 25.0834 29.1472 25.0589 28.662 25.1829C28.4389 25.2407 28.2258 25.3315 28.0296 25.4524L24.0912 27.8779C23.4439 28.2785 22.7397 28.579 22.0026 28.7691C20.3931 29.1826 18.6964 29.103 17.1327 28.5405C15.569 27.9781 14.2104 26.9587 13.2331 25.6147C12.6521 24.8251 12.2395 23.9246 12.0206 22.969C11.8017 22.0135 11.7813 21.0231 11.9606 20.0593C12.1414 19.1099 12.5195 18.2091 13.0705 17.4151C13.6216 16.6211 14.3332 15.9517 15.1594 15.4503L25.431 9.08947C26.0784 8.68937 26.7826 8.38943 27.5197 8.19981C29.1292 7.78537 30.8262 7.86439 32.3903 8.42662C33.9544 8.98885 35.3133 10.0083 36.2907 11.3527C36.8754 12.1398 37.2924 13.0386 37.5157 13.9933C37.7391 14.9481 37.7641 15.9386 37.5892 16.9034C37.5311 17.2204 37.4497 17.5326 37.3457 17.8375L37.1512 18.4117L36.6245 18.0488C35.4024 17.1768 34.0419 16.5172 32.6004 16.098L32.2252 15.9847L32.2635 15.6218C32.3075 15.0937 32.1597 14.5674 31.847 14.1395C31.5532 13.734 31.1441 13.4262 30.673 13.2564C30.2019 13.0865 29.6906 13.0623 29.2056 13.1871C28.9834 13.2446 28.7712 13.3355 28.5762 13.4566L18.2832 19.796C18.0333 19.9466 17.818 20.1483 17.6515 20.3879C17.485 20.6275 17.371 20.8996 17.3169 21.1863C17.2603 21.4757 17.2643 21.7737 17.3286 22.0615C17.3929 22.3493 17.5162 22.6207 17.6906 22.8585C17.9854 23.2632 18.3948 23.5702 18.866 23.7398C19.3372 23.9093 19.8484 23.9335 20.3335 23.8094C20.5563 23.7514 20.7693 23.6612 20.9659 23.5414L24.889 21.1144C25.536 20.7136 26.2403 20.4136 26.9776 20.2247C28.5872 19.8111 30.2839 19.8906 31.8478 20.4527C33.4117 21.0149 34.7707 22.0339 35.7486 23.3776C36.3319 24.1654 36.7474 25.0644 36.9694 26.0191C37.1914 26.9739 37.2153 27.964 37.0394 28.9283C36.8599 29.8788 36.4823 30.7808 35.9312 31.5757C35.3801 32.3706 34.6678 33.0406 33.8407 33.542L23.5706 39.9028C22.9235 40.3036 22.2192 40.6036 21.4819 40.7925" fill="white"/>
</svg>
