<svg width="190" height="144" viewBox="0 0 190 144" fill="none" xmlns="http://www.w3.org/2000/svg">
<g id="bg-footer">
<g id="Shape" clip-path="url(#clip0_36_5477)">
<rect id="Rectangle" opacity="0.24" width="631.694" height="352.523" rx="45.4479" transform="matrix(0.707107 0.707107 0.707107 -0.707107 -324.684 232.83)" fill="#6C5CE7"/>
<g id="Rectangle_2" style="mix-blend-mode:multiply" opacity="0.24">
<rect width="631.694" height="207.751" rx="45.4479" transform="matrix(0.707107 0.707107 0.707107 -0.707107 -68.9153 180.496)" fill="#FDCB6E"/>
</g>
</g>
<g id="&#240;&#159;&#142;&#168; Dots 1" clip-path="url(#clip1_36_5477)">
<path id="Dot" d="M138.157 135.594C138.157 136.924 139.236 138.002 140.565 138.002C141.895 138.002 142.973 136.924 142.973 135.594C142.973 134.264 141.895 133.186 140.565 133.186C139.236 133.186 138.157 134.264 138.157 135.594Z" fill="#A29BFE"/>
<path id="Dot_2" d="M146.184 143.62C146.184 144.95 147.262 146.028 148.592 146.028C149.922 146.028 151 144.95 151 143.62C151 142.29 149.922 141.212 148.592 141.212C147.262 141.212 146.184 142.29 146.184 143.62Z" fill="#A29BFE"/>
<path id="Dot_3" d="M122.104 119.541C122.104 120.871 123.182 121.949 124.512 121.949C125.842 121.949 126.92 120.871 126.92 119.541C126.92 118.211 125.842 117.133 124.512 117.133C123.182 117.133 122.104 118.211 122.104 119.541Z" fill="#A29BFE"/>
<path id="Dot_4" d="M130.131 127.567C130.131 128.897 131.209 129.975 132.539 129.975C133.869 129.975 134.947 128.897 134.947 127.567C134.947 126.237 133.869 125.159 132.539 125.159C131.209 125.159 130.131 126.237 130.131 127.567Z" fill="#A29BFE"/>
<path id="Dot_5" d="M122.104 135.594C122.104 136.924 123.182 138.002 124.512 138.002C125.842 138.002 126.92 136.924 126.92 135.594C126.92 134.264 125.842 133.186 124.512 133.186C123.182 133.186 122.104 134.264 122.104 135.594Z" fill="#A29BFE"/>
<path id="Dot_6" d="M130.131 143.62C130.131 144.95 131.209 146.028 132.539 146.028C133.869 146.028 134.947 144.95 134.947 143.62C134.947 142.29 133.869 141.212 132.539 141.212C131.209 141.212 130.131 142.29 130.131 143.62Z" fill="#A29BFE"/>
<path id="Dot_7" d="M106.051 103.488C106.051 104.817 107.129 105.896 108.459 105.896C109.789 105.896 110.867 104.817 110.867 103.488C110.867 102.158 109.789 101.08 108.459 101.08C107.129 101.08 106.051 102.158 106.051 103.488Z" fill="#A29BFE"/>
<path id="Dot_8" d="M114.078 111.514C114.078 112.844 115.156 113.922 116.486 113.922C117.816 113.922 118.894 112.844 118.894 111.514C118.894 110.185 117.816 109.106 116.486 109.106C115.156 109.106 114.078 110.185 114.078 111.514Z" fill="#A29BFE"/>
<path id="Dot_9" d="M106.051 119.541C106.051 120.871 107.129 121.949 108.459 121.949C109.789 121.949 110.867 120.871 110.867 119.541C110.867 118.211 109.789 117.133 108.459 117.133C107.129 117.133 106.051 118.211 106.051 119.541Z" fill="#A29BFE"/>
<path id="Dot_10" d="M114.078 127.567C114.078 128.897 115.156 129.975 116.486 129.975C117.816 129.975 118.894 128.897 118.894 127.567C118.894 126.237 117.816 125.159 116.486 125.159C115.156 125.159 114.078 126.237 114.078 127.567Z" fill="#A29BFE"/>
<path id="Dot_11" d="M106.051 135.594C106.051 136.924 107.129 138.002 108.459 138.002C109.789 138.002 110.867 136.924 110.867 135.594C110.867 134.264 109.789 133.186 108.459 133.186C107.129 133.186 106.051 134.264 106.051 135.594Z" fill="#A29BFE"/>
<path id="Dot_12" d="M114.078 143.62C114.078 144.95 115.156 146.028 116.486 146.028C117.816 146.028 118.894 144.95 118.894 143.62C118.894 142.29 117.816 141.212 116.486 141.212C115.156 141.212 114.078 142.29 114.078 143.62Z" fill="#A29BFE"/>
<path id="Dot_13" d="M98.0248 111.514C98.0248 112.844 99.1028 113.922 100.433 113.922C101.763 113.922 102.841 112.844 102.841 111.514C102.841 110.185 101.763 109.106 100.433 109.106C99.1028 109.106 98.0248 110.185 98.0248 111.514Z" fill="#A29BFE"/>
<path id="Dot_14" d="M89.9982 119.541C89.9982 120.871 91.0762 121.949 92.4061 121.949C93.736 121.949 94.8141 120.871 94.8141 119.541C94.8141 118.211 93.736 117.133 92.4061 117.133C91.0762 117.133 89.9982 118.211 89.9982 119.541Z" fill="#A29BFE"/>
<path id="Dot_15" d="M98.0248 127.567C98.0248 128.897 99.1028 129.975 100.433 129.975C101.763 129.975 102.841 128.897 102.841 127.567C102.841 126.237 101.763 125.159 100.433 125.159C99.1028 125.159 98.0248 126.237 98.0248 127.567Z" fill="#A29BFE"/>
<path id="Dot_16" d="M89.9982 135.594C89.9982 136.924 91.0762 138.002 92.4061 138.002C93.736 138.002 94.8141 136.924 94.8141 135.594C94.8141 134.264 93.736 133.186 92.4061 133.186C91.0762 133.186 89.9982 134.264 89.9982 135.594Z" fill="#A29BFE"/>
<path id="Dot_17" d="M98.0248 143.62C98.0248 144.95 99.1028 146.028 100.433 146.028C101.763 146.028 102.841 144.95 102.841 143.62C102.841 142.29 101.763 141.212 100.433 141.212C99.1028 141.212 98.0248 142.29 98.0248 143.62Z" fill="#A29BFE"/>
<path id="Dot_18" d="M81.9717 127.567C81.9717 128.897 83.0497 129.975 84.3796 129.975C85.7095 129.975 86.7876 128.897 86.7876 127.567C86.7876 126.237 85.7095 125.159 84.3796 125.159C83.0497 125.159 81.9717 126.237 81.9717 127.567Z" fill="#A29BFE"/>
<path id="Dot_19" d="M73.9451 135.594C73.9451 136.924 75.0231 138.002 76.353 138.002C77.6829 138.002 78.761 136.924 78.761 135.594C78.761 134.264 77.6829 133.186 76.353 133.186C75.0231 133.186 73.9451 134.264 73.9451 135.594Z" fill="#A29BFE"/>
<path id="Dot_20" d="M81.9717 143.62C81.9717 144.95 83.0497 146.028 84.3796 146.028C85.7095 146.028 86.7876 144.95 86.7876 143.62C86.7876 142.29 85.7095 141.212 84.3796 141.212C83.0497 141.212 81.9717 142.29 81.9717 143.62Z" fill="#A29BFE"/>
<path id="Dot_21" d="M65.9184 143.62C65.9184 144.95 66.9965 146.028 68.3264 146.028C69.6563 146.028 70.7344 144.95 70.7344 143.62C70.7344 142.29 69.6563 141.212 68.3264 141.212C66.9965 141.212 65.9184 142.29 65.9184 143.62Z" fill="#A29BFE"/>
</g>
</g>
<defs>
<clipPath id="clip0_36_5477">
<rect width="555.87" height="154.036" fill="white" transform="matrix(1 0 0 -1 -366 155)"/>
</clipPath>
<clipPath id="clip1_36_5477">
<rect width="75.2662" height="102.636" fill="white" transform="translate(151 77) rotate(90)"/>
</clipPath>
</defs>
</svg>
